Chemise-Crousty_00.ufo
<glyph name="a" format="1">
  <advance width="323"/>
  <unicode hex="0061"/>
  <outline>
    <contour>
      <point x="158.843" y="431.216" type="curve" smooth="yes"/>
      <point x="173.419" y="431.651"/>
      <point x="187.677" y="428.9"/>
      <point x="199.578" y="422.698" type="curve" smooth="yes"/>
      <point x="220.312" y="411.892"/>
      <point x="239.511" y="390.064"/>
      <point x="244.387" y="371.717" type="curve" smooth="yes"/>
      <point x="246.519" y="363.696"/>
      <point x="248.812" y="280.848"/>
      <point x="249.447" y="186.556" type="curve" smooth="yes"/>
      <point x="250.282" y="63.0928"/>
      <point x="250.811" y="16.5781"/>
      <point x="246.115" y="11.3936" type="curve" smooth="yes"/>
      <point x="241.416" y="5.23926"/>
      <point x="220.645" y="6.36328"/>
      <point x="186.863" y="5.46875" type="curve" smooth="yes"/>
      <point x="186.863" y="5.46875"/>
      <point x="144.271" y="1.43555"/>
      <point x="132.056" y="3.9873" type="curve" smooth="yes"/>
      <point x="119.841" y="6.53809"/>
      <point x="113.91" y="12.5049"/>
      <point x="113.91" y="12.5049" type="curve" smooth="yes"/>
      <point x="103.67" y="17.2588"/>
      <point x="91.6582" y="26.9033"/>
      <point x="86.3838" y="34.6006" type="curve" smooth="yes"/>
      <point x="78.582" y="45.9854"/>
      <point x="76.5625" y="54.9844"/>
      <point x="74.6562" y="88.1738" type="curve" smooth="yes"/>
      <point x="73.3945" y="110.114"/>
      <point x="72.6885" y="147.896"/>
      <point x="73.0508" y="172.113" type="curve" smooth="yes"/>
      <point x="73.6123" y="209.494"/>
      <point x="75.0059" y="218.144"/>
      <point x="82.1865" y="229.76" type="curve" smooth="yes"/>
      <point x="94.7412" y="250.074"/>
      <point x="116.552" y="263.457"/>
      <point x="141.932" y="266.299" type="curve" smooth="yes"/>
      <point x="153.881" y="267.636"/>
      <point x="167.66" y="269.53"/>
      <point x="172.421" y="270.495" type="curve" smooth="yes"/>
      <point x="181.062" y="272.224" type="line"/>
      <point x="181.186" y="310.614" type="line" smooth="yes"/>
      <point x="181.267" y="340.535"/>
      <point x="179.772" y="350.509"/>
      <point x="174.766" y="356.04" type="curve" smooth="yes"/>
      <point x="167.098" y="364.513"/>
      <point x="152.577" y="365.205"/>
      <point x="144.893" y="357.521" type="curve" smooth="yes"/>
      <point x="141.535" y="354.162"/>
      <point x="139.013" y="342.091"/>
      <point x="138.475" y="326.908" type="curve" smooth="yes"/>
      <point x="137.984" y="313.121"/>
      <point x="136.295" y="300.551"/>
      <point x="134.771" y="299.011" type="curve" smooth="yes"/>
      <point x="133.247" y="297.47"/>
      <point x="120.679" y="295.239"/>
      <point x="106.873" y="293.949" type="curve" smooth="yes"/>
      <point x="86.4844" y="292.044"/>
      <point x="80.4619" y="292.791"/>
      <point x="74.4092" y="298.27" type="curve" smooth="yes"/>
      <point x="68.4189" y="303.689"/>
      <point x="66.9326" y="310.559"/>
      <point x="67.002" y="333.08" type="curve" smooth="yes"/>
      <point x="67.0986" y="364.673"/>
      <point x="75.042" y="386.669"/>
      <point x="92.8008" y="404.429" type="curve" smooth="yes"/>
      <point x="109.379" y="421.006"/>
      <point x="134.549" y="430.487"/>
    </contour>
    <contour>
      <point x="170.199" y="207.541" type="curve" smooth="yes"/>
      <point x="166.834" y="207.695"/>
      <point x="162.417" y="206.136"/>
      <point x="156.62" y="203.715" type="curve" smooth="yes"/>
      <point x="149.091" y="200.568"/>
      <point x="141.762" y="196.039"/>
      <point x="140.325" y="193.716" type="curve" smooth="yes"/>
      <point x="138.889" y="191.391"/>
      <point x="137.702" y="164.563"/>
      <point x="137.61" y="133.97" type="curve" smooth="yes"/>
      <point x="137.492" y="95.1777"/>
      <point x="138.871" y="76.5059"/>
      <point x="142.301" y="72.373" type="curve" smooth="yes"/>
      <point x="145.565" y="68.4404"/>
      <point x="152.696" y="66.7744"/>
      <point x="163.409" y="67.5596" type="curve" smooth="yes"/>
      <point x="179.457" y="68.7939" type="line"/>
      <point x="180.197" y="134.711" type="line" smooth="yes"/>
      <point x="180.824" y="190.978"/>
      <point x="180.295" y="207.075"/>
    </contour>
  </outline>
</glyph>
<glyph name="b" format="1">
  <advance width="321"/>
  <unicode hex="0062"/>
  <outline>
    <contour>
      <point x="113.041" y="548.739" type="curve" smooth="yes"/>
      <point x="128.045" y="548.739"/>
      <point x="141.348" y="547.046"/>
      <point x="142.667" y="544.913" type="curve" smooth="yes"/>
      <point x="146.402" y="539.396"/>
      <point x="145.136" y="511.671"/>
      <point x="145.136" y="475.786" type="curve" smooth="yes"/>
      <point x="145.136" y="410.486" type="line"/>
      <point x="174.392" y="410.486" type="line" smooth="yes"/>
      <point x="211.062" y="410.486"/>
      <point x="224.922" y="402.701"/>
      <point x="241.819" y="385.74" type="curve" smooth="yes"/>
      <point x="246.994" y="380.546"/>
      <point x="249.319" y="371.307"/>
      <point x="249.319" y="365.06" type="curve" smooth="yes"/>
      <point x="249.438" y="328.096"/>
      <point x="248.333" y="210.512"/>
      <point x="248.333" y="210.512" type="curve" smooth="yes"/>
      <point x="247.544" y="86.6406"/>
      <point x="246.226" y="53.2979"/>
      <point x="241.667" y="42.3857" type="curve" smooth="yes"/>
      <point x="235.344" y="27.2559"/>
      <point x="215.092" y="5.69043"/>
      <point x="199.943" y="-2.05273" type="curve" smooth="yes"/>
      <point x="194.512" y="-4.8291"/>
      <point x="181.181" y="-8.10645"/>
      <point x="170.317" y="-9.33594" type="curve" smooth="yes"/>
      <point x="146.996" y="-11.9746"/>
      <point x="113.908" y="-2.26953"/>
      <point x="99.0928" y="11.6494" type="curve" smooth="yes"/>
      <point x="93.7998" y="16.6221"/>
      <point x="83.5332" y="23.0166"/>
      <point x="79.0977" y="32.1777" type="curve"/>
      <point x="79.0977" y="32.1777"/>
      <point x="73.5156" y="43.248"/>
      <point x="73.2939" y="54.1133" type="curve" smooth="yes"/>
      <point x="71.9287" y="121.122"/>
      <point x="75.7627" y="294.328"/>
      <point x="75.7627" y="294.328" type="curve" smooth="yes"/>
      <point x="77.1699" y="435.244"/>
      <point x="79.71" y="537.548"/>
      <point x="81.9336" y="541.703" type="curve" smooth="yes"/>
      <point x="85.0195" y="547.467"/>
      <point x="90.8525" y="548.739"/>
    </contour>
    <contour>
      <point x="158.468" y="339.26" type="curve" smooth="yes"/>
      <point x="152.897" y="339.462"/>
      <point x="147.901" y="337.862"/>
      <point x="146.74" y="334.446" type="curve" smooth="yes"/>
      <point x="145.817" y="331.731"/>
      <point x="144.304" y="270.503"/>
      <point x="143.408" y="198.415" type="curve" smooth="yes"/>
      <point x="142.291" y="108.597"/>
      <point x="143.106" y="66.0176"/>
      <point x="146" y="63.124" type="curve" smooth="yes"/>
      <point x="151.562" y="57.5625"/>
      <point x="157.405" y="57.7627"/>
      <point x="165.751" y="63.8652" type="curve" smooth="yes"/>
      <point x="173.679" y="69.6621"/>
      <point x="175.26" y="90.8018"/>
      <point x="177.972" y="235.693" type="curve" smooth="yes"/>
      <point x="179.429" y="313.597"/>
      <point x="178.791" y="328.442"/>
      <point x="173.774" y="333.459" type="curve" smooth="yes"/>
      <point x="170.187" y="337.047"/>
      <point x="164.036" y="339.06"/>
    </contour>
  </outline>
</glyph>
<glyph name="c" format="1">
  <advance width="304"/>
  <unicode hex="0063"/>
  <outline>
    <contour>
      <point x="185.32" y="1.30957" type="curve" smooth="yes"/>
      <point x="165.791" y="-6.83594"/>
      <point x="140.454" y="-6.29883"/>
      <point x="120.685" y="2.67969" type="curve" smooth="yes"/>
      <point x="111.819" y="6.70605"/>
      <point x="97.8535" y="12.876"/>
      <point x="89.6504" y="22.8857" type="curve" smooth="yes"/>
      <point x="77.4307" y="37.7998"/>
      <point x="74.4756" y="50.1582"/>
      <point x="73.2803" y="67.207" type="curve" smooth="yes"/>
      <point x="72.4805" y="78.6494"/>
      <point x="71.6357" y="148.449"/>
      <point x="71.4072" y="222.315" type="curve" smooth="yes"/>
      <point x="71.1504" y="304.655"/>
      <point x="69.583" y="346.418"/>
      <point x="74.9941" y="367.043" type="curve" smooth="yes"/>
      <point x="80.2295" y="386.994"/>
      <point x="102.053" y="405.171"/>
      <point x="116.653" y="412.799" type="curve" smooth="yes"/>
      <point x="124.241" y="416.762"/>
      <point x="138.163" y="419.132"/>
      <point x="153.227" y="419.021" type="curve" smooth="yes"/>
      <point x="186.782" y="418.774"/>
      <point x="207.973" y="406.804"/>
      <point x="221.52" y="380.435" type="curve" smooth="yes"/>
      <point x="229.384" y="365.127"/>
      <point x="231.859" y="353.81"/>
      <point x="232.746" y="329.083" type="curve" smooth="yes"/>
      <point x="233.372" y="311.64"/>
      <point x="232.318" y="295.049"/>
      <point x="230.405" y="292.215" type="curve" smooth="yes"/>
      <point x="226.404" y="286.289"/>
      <point x="178.498" y="282.476"/>
      <point x="170.46" y="287.443" type="curve" smooth="yes"/>
      <point x="165.444" y="290.543"/>
      <point x="163.204" y="304.581"/>
      <point x="162.714" y="336.005" type="curve" smooth="yes"/>
      <point x="162.429" y="354.283"/>
      <point x="152.703" y="360.039"/>
      <point x="142.789" y="347.797" type="curve" smooth="yes"/>
      <point x="136.842" y="340.453"/>
      <point x="136.314" y="326.589"/>
      <point x="137.544" y="209.871" type="curve" smooth="yes"/>
      <point x="138.295" y="138.504"/>
      <point x="139.803" y="76.1123"/>
      <point x="140.896" y="71.2246" type="curve" smooth="yes"/>
      <point x="141.987" y="66.3359"/>
      <point x="145.295" y="62.3359"/>
      <point x="148.247" y="62.3359" type="curve" smooth="yes"/>
      <point x="159.075" y="62.3359"/>
      <point x="163.78" y="74.6592"/>
      <point x="164.345" y="104.496" type="curve" smooth="yes"/>
      <point x="165.068" y="142.801"/>
      <point x="169.429" y="146.96"/>
      <point x="205.506" y="143.767" type="curve" smooth="yes"/>
      <point x="219.395" y="142.536"/>
      <point x="228.387" y="145.35"/>
      <point x="231.933" y="140.354" type="curve" smooth="yes"/>
      <point x="235.479" y="135.359"/>
      <point x="233.873" y="119.921"/>
      <point x="234.807" y="96.3828" type="curve" smooth="yes"/>
      <point x="236.018" y="65.8486"/>
      <point x="232.108" y="47.6885"/>
      <point x="228.382" y="40.2188" type="curve" smooth="yes"/>
      <point x="220.782" y="24.9854"/>
      <point x="202.213" y="8.35449"/>
    </contour>
  </outline>
</glyph>
<glyph name="d" format="1">
  <advance width="311"/>
  <unicode hex="0064"/>
  <outline>
    <contour>
      <point x="203.786" y="545.4" type="curve" smooth="yes"/>
      <point x="215.008" y="545.023"/>
      <point x="226.289" y="542.977"/>
      <point x="229.462" y="539.722" type="curve" smooth="yes"/>
      <point x="232.844" y="536.253"/>
      <point x="234.632" y="464.199"/>
      <point x="236.128" y="269.634" type="curve" smooth="yes"/>
      <point x="237.796" y="52.7646"/>
      <point x="237.178" y="3.45117"/>
      <point x="232.919" y="-0.0849609" type="curve" smooth="yes"/>
      <point x="230.051" y="-2.46387"/>
      <point x="206.603" y="-5.12402"/>
      <point x="180.827" y="-6.00977" type="curve" smooth="yes"/>
      <point x="113.372" y="-8.32812"/>
      <point x="99.9541" y="-3.80469"/>
      <point x="83.9258" y="26.208" type="curve" smooth="yes"/>
      <point x="72.2988" y="47.9795"/>
      <point x="72.8291" y="38.1611"/>
      <point x="71.5811" y="232.848" type="curve"/>
      <point x="71.5811" y="232.848"/>
      <point x="67.1816" y="343.116"/>
      <point x="73.0605" y="366.198" type="curve" smooth="yes"/>
      <point x="79.3164" y="390.656"/>
      <point x="91.7598" y="398.35"/>
      <point x="145.028" y="409.245" type="curve"/>
      <point x="170.828" y="411.714" type="line"/>
      <point x="172.186" y="474.174" type="line" smooth="yes"/>
      <point x="173.089" y="516.758"/>
      <point x="175.048" y="538.144"/>
      <point x="178.358" y="541.449" type="curve" smooth="yes"/>
      <point x="181.408" y="544.496"/>
      <point x="192.565" y="545.775"/>
    </contour>
    <contour>
      <point x="161.076" y="341.723" type="curve" smooth="yes"/>
      <point x="159.413" y="341.611"/>
      <point x="157.562" y="341.178"/>
      <point x="155.397" y="340.612" type="curve" smooth="yes"/>
      <point x="138.815" y="336.274"/>
      <point x="138.345" y="332.417"/>
      <point x="139.104" y="201.864" type="curve" smooth="yes"/>
      <point x="139.504" y="133.062"/>
      <point x="140.823" y="72.0469"/>
      <point x="142.065" y="66.2031" type="curve" smooth="yes"/>
      <point x="143.708" y="58.4814"/>
      <point x="147.521" y="56.0762"/>
      <point x="155.027" y="53.9824" type="curve" smooth="yes"/>
      <point x="161.176" y="52.2666"/>
      <point x="165.827" y="50.376"/>
      <point x="168.483" y="51.7607" type="curve" smooth="yes"/>
      <point x="176.122" y="54.4707"/>
      <point x="173.046" y="61.1631"/>
      <point x="172.557" y="208.53" type="curve" smooth="yes"/>
      <point x="172.164" y="326.185"/>
      <point x="172.716" y="342.502"/>
    </contour>
  </outline>
</glyph>
<glyph name="e" format="1">
  <advance width="320"/>
  <unicode hex="0065"/>
  <outline>
    <contour>
      <point x="160.03" y="421.952" type="curve" smooth="yes"/>
      <point x="160.027" y="421.952" type="line" smooth="yes"/>
      <point x="178.136" y="421.952"/>
      <point x="208.61" y="408.993"/>
      <point x="221.748" y="395.658" type="curve" smooth="yes"/>
      <point x="228.945" y="388.354"/>
      <point x="238.335" y="374.461"/>
      <point x="242.609" y="364.799" type="curve"/>
      <point x="242.609" y="364.799"/>
      <point x="246.821" y="351.117"/>
      <point x="248.043" y="344.804" type="curve" smooth="yes"/>
      <point x="252.624" y="321.159"/>
      <point x="248.043" y="274.934"/>
      <point x="248.043" y="274.934" type="curve"/>
      <point x="246.754" y="235.203"/>
      <point x="246.086" y="204.307"/>
      <point x="241.995" y="198.894" type="curve" smooth="yes"/>
      <point x="236.268" y="191.315"/>
      <point x="216.925" y="195.003"/>
      <point x="191.015" y="194.944" type="curve" smooth="yes"/>
      <point x="164.367" y="194.885"/>
      <point x="142.191" y="193.029"/>
      <point x="139.909" y="190.747" type="curve" smooth="yes"/>
      <point x="137.586" y="188.425"/>
      <point x="135.726" y="162.842"/>
      <point x="135.466" y="130.386" type="curve" smooth="yes"/>
      <point x="135.097" y="84.665"/>
      <point x="136.11" y="72.2148"/>
      <point x="141.268" y="64.3438" type="curve" smooth="yes"/>
      <point x="149.121" y="52.3574"/>
      <point x="163.365" y="51.6797"/>
      <point x="173.485" y="62.8623" type="curve" smooth="yes"/>
      <point x="179.436" y="69.4375"/>
      <point x="181.383" y="79.334"/>
      <point x="182.99" y="111.252" type="curve" smooth="yes"/>
      <point x="184.101" y="133.319"/>
      <point x="186.382" y="153.487"/>
      <point x="188.052" y="156.061" type="curve" smooth="yes"/>
      <point x="191.693" y="161.675"/>
      <point x="236.951" y="160.24"/>
      <point x="242.859" y="154.332" type="curve" smooth="yes"/>
      <point x="249.048" y="148.143"/>
      <point x="247.74" y="70.9043"/>
      <point x="241.13" y="51.7529" type="curve" smooth="yes"/>
      <point x="233.406" y="29.3721"/>
      <point x="216.269" y="9.62012"/>
      <point x="195.952" y="-0.338867" type="curve" smooth="yes"/>
      <point x="177.928" y="-9.17383"/>
      <point x="152.021" y="-10.5576"/>
      <point x="127.072" y="-3.91895" type="curve" smooth="yes"/>
      <point x="109.664" y="0.714844"/>
      <point x="88.248" y="20.4736"/>
      <point x="78.5586" y="40.8906" type="curve"/>
      <point x="78.5586" y="40.8906"/>
      <point x="77.4775" y="40.498"/>
      <point x="71.5244" y="67.1172" type="curve" smooth="yes"/>
      <point x="65.5693" y="93.7373"/>
      <point x="72.0166" y="202.969"/>
      <point x="72.0166" y="202.969" type="curve"/>
      <point x="72.0166" y="202.969"/>
      <point x="69.2744" y="319.005"/>
      <point x="74.8545" y="346.133" type="curve" smooth="yes"/>
      <point x="80.4336" y="373.262"/>
      <point x="79.918" y="367.638"/>
      <point x="79.918" y="367.638" type="curve"/>
      <point x="92.5879" y="397.199"/>
      <point x="129.055" y="421.952"/>
    </contour>
    <contour>
      <point x="161.266" y="350.604" type="curve" smooth="yes"/>
      <point x="155.818" y="350.577"/>
      <point x="150.336" y="348.957"/>
      <point x="145.834" y="345.665" type="curve" smooth="yes"/>
      <point x="140.199" y="341.545"/>
      <point x="138.586" y="333.993"/>
      <point x="137.811" y="309.127" type="curve" smooth="yes"/>
      <point x="137.273" y="291.888"/>
      <point x="138.229" y="273.773"/>
      <point x="140.033" y="268.886" type="curve" smooth="yes"/>
      <point x="142.762" y="261.484"/>
      <point x="146.329" y="259.998"/>
      <point x="161.019" y="259.998" type="curve" smooth="yes"/>
      <point x="170.721" y="259.998"/>
      <point x="179.713" y="261.718"/>
      <point x="181.015" y="263.824" type="curve" smooth="yes"/>
      <point x="182.316" y="265.932"/>
      <point x="183.321" y="284.086"/>
      <point x="183.361" y="304.189" type="curve" smooth="yes"/>
      <point x="183.408" y="334.455"/>
      <point x="182.282" y="341.612"/>
      <point x="176.572" y="345.789" type="curve" smooth="yes"/>
      <point x="172.13" y="349.037"/>
      <point x="166.712" y="350.643"/>
    </contour>
  </outline>
</glyph>
<glyph name="f" format="1">
  <advance width="265"/>
  <unicode hex="0066"/>
  <outline>
    <contour>
      <point x="159.301" y="0.588867" type="curve" smooth="yes"/>
      <point x="155.284" y="-7.25391"/>
      <point x="105.483" y="-7.22461"/>
      <point x="99.5273" y="-3.97363" type="curve" smooth="yes"/>
      <point x="93.5693" y="-0.72168"/>
      <point x="94.3584" y="47.415"/>
      <point x="93.1943" y="172.389" type="curve" smooth="yes"/>
      <point x="92.3213" y="266.243"/>
      <point x="91.1279" y="343.417"/>
      <point x="90.542" y="343.886" type="curve" smooth="yes"/>
      <point x="82.375" y="347.227"/>
      <point x="72.6406" y="345.822"/>
      <point x="65.7783" y="352.403" type="curve" smooth="yes"/>
      <point x="58.915" y="358.983"/>
      <point x="62.9561" y="397.456"/>
      <point x="65.7783" y="407.046" type="curve" smooth="yes"/>
      <point x="68.5996" y="416.637"/>
      <point x="86.0977" y="410.908"/>
      <point x="93.4287" y="415.987" type="curve"/>
      <point x="93.7646" y="463.318" type="line" smooth="yes"/>
      <point x="94.0654" y="505.726"/>
      <point x="95.0234" y="511.943"/>
      <point x="102.964" y="523.097" type="curve" smooth="yes"/>
      <point x="114.389" y="539.142"/>
      <point x="129.02" y="546.515"/>
      <point x="155.648" y="549.644" type="curve" smooth="yes"/>
      <point x="172.453" y="551.619"/>
      <point x="180.833" y="550.471"/>
      <point x="194.502" y="544.319" type="curve" smooth="yes"/>
      <point x="215.489" y="534.877"/>
      <point x="227.645" y="524.551"/>
      <point x="231.262" y="513.096" type="curve" smooth="yes"/>
      <point x="232.738" y="508.417"/>
      <point x="234.068" y="494.311"/>
      <point x="234.219" y="481.746" type="curve" smooth="yes"/>
      <point x="234.543" y="454.655"/>
      <point x="228.908" y="448.521"/>
      <point x="203.698" y="448.521" type="curve" smooth="yes"/>
      <point x="185.925" y="448.521"/>
      <point x="182.355" y="452.354"/>
      <point x="182.245" y="471.559" type="curve" smooth="yes"/>
      <point x="182.212" y="477.355"/>
      <point x="180.485" y="484.764"/>
      <point x="178.407" y="488.023" type="curve" smooth="yes"/>
      <point x="175.477" y="492.621"/>
      <point x="173.057" y="492.962"/>
      <point x="167.605" y="489.549" type="curve" smooth="yes"/>
      <point x="161.729" y="485.869"/>
      <point x="160.58" y="479.411"/>
      <point x="160.58" y="450.086" type="curve" smooth="yes"/>
      <point x="160.58" y="415.023" type="line"/>
      <point x="172.038" y="413.011" type="line" smooth="yes"/>
      <point x="178.34" y="411.903"/>
      <point x="184.605" y="407.827"/>
      <point x="185.961" y="403.954" type="curve" smooth="yes"/>
      <point x="190.207" y="390.377"/>
      <point x="189.561" y="368.71"/>
      <point x="184.28" y="355.962" type="curve" smooth="yes"/>
      <point x="181.552" y="349.375"/>
      <point x="165.419" y="353.05"/>
      <point x="158.373" y="348.561" type="curve"/>
      <point x="158.837" y="174.574" type="line"/>
      <point x="158.837" y="174.574"/>
      <point x="173.047" y="27.7588"/>
    </contour>
  </outline>
</glyph>
<glyph name="g" format="1">
  <advance width="314"/>
  <unicode hex="0067"/>
  <outline>
    <contour>
      <point x="191.577" y="424.084" type="curve" smooth="yes"/>
      <point x="210.349" y="424.31"/>
      <point x="223.173" y="425.649"/>
      <point x="229.844" y="418.76" type="curve"/>
      <point x="246.524" y="408.726"/>
      <point x="237.062" y="229.064"/>
      <point x="236.88" y="178.932" type="curve" smooth="yes"/>
      <point x="236.88" y="178.932"/>
      <point x="237.618" y="-36.2236"/>
      <point x="236.017" y="-51.4092" type="curve" smooth="yes"/>
      <point x="234.413" y="-66.5938"/>
      <point x="227.745" y="-75.3564"/>
      <point x="227.745" y="-75.3564" type="curve"/>
      <point x="217.262" y="-95.9062"/>
      <point x="195.767" y="-114.766"/>
      <point x="176.765" y="-120.042" type="curve" smooth="yes"/>
      <point x="158.238" y="-125.187"/>
      <point x="146.376" y="-124.875"/>
      <point x="127.265" y="-118.931" type="curve" smooth="yes"/>
      <point x="94.6348" y="-108.781"/>
      <point x="69" y="-75.1855"/>
      <point x="69" y="-42.3975" type="curve" smooth="yes"/>
      <point x="69" y="-23.7793"/>
      <point x="72.4512" y="-21.5361"/>
      <point x="100.602" y="-21.5361" type="curve" smooth="yes"/>
      <point x="111.108" y="-21.5361"/>
      <point x="122.593" y="-22.5615"/>
      <point x="126.03" y="-23.8809" type="curve" smooth="yes"/>
      <point x="129.827" y="-25.3379"/>
      <point x="132.201" y="-31.0439"/>
      <point x="132.201" y="-38.3242" type="curve" smooth="yes"/>
      <point x="132.201" y="-45.1016"/>
      <point x="135.204" y="-52.5137"/>
      <point x="139.114" y="-55.4824" type="curve" smooth="yes"/>
      <point x="157.112" y="-69.1445"/>
      <point x="171.33" y="-56.0166"/>
      <point x="174.295" y="-22.7705" type="curve" smooth="yes"/>
      <point x="175.795" y="-5.96387"/>
      <point x="174.88" y="1.84375"/>
      <point x="171.085" y="4.87988" type="curve" smooth="yes"/>
      <point x="168.185" y="7.20215"/>
      <point x="152.293" y="9.91895"/>
      <point x="135.782" y="10.9287" type="curve" smooth="yes"/>
      <point x="104.59" y="14.3691"/>
      <point x="93.1992" y="21.7188"/>
      <point x="78.2578" y="41.666" type="curve" smooth="yes"/>
      <point x="74.5371" y="46.6328"/>
      <point x="70.9111" y="56.1396"/>
      <point x="70.292" y="67.833" type="curve" smooth="yes"/>
      <point x="68.626" y="99.29"/>
      <point x="70.9756" y="191.77"/>
      <point x="70.9756" y="191.77" type="curve" smooth="yes"/>
      <point x="70.9756" y="266.723"/>
      <point x="72.3027" y="338.948"/>
      <point x="73.8145" y="352.243" type="curve" smooth="yes"/>
      <point x="75.7666" y="369.418"/>
      <point x="79.959" y="381.486"/>
      <point x="88.3809" y="393.966" type="curve" smooth="yes"/>
      <point x="94.8994" y="403.624"/>
      <point x="105.125" y="413.713"/>
      <point x="111.093" y="416.432" type="curve" smooth="yes"/>
      <point x="120.26" y="420.608"/>
      <point x="160.29" y="423.709"/>
    </contour>
    <contour>
      <point x="152.693" y="359.771" type="curve" smooth="yes"/>
      <point x="145.28" y="359.313"/>
      <point x="140.836" y="357.199"/>
      <point x="138.745" y="351.749" type="curve" smooth="yes"/>
      <point x="137.618" y="348.812"/>
      <point x="136.324" y="287.309"/>
      <point x="135.905" y="215.1" type="curve" smooth="yes"/>
      <point x="135.905" y="215.1"/>
      <point x="133.686" y="102.674"/>
      <point x="135.164" y="91.6592" type="curve" smooth="yes"/>
      <point x="136.889" y="78.8271"/>
      <point x="142.324" y="78.5752"/>
      <point x="142.324" y="78.5752" type="curve"/>
      <point x="150.031" y="72.9385"/>
      <point x="167.679" y="71.3066"/>
      <point x="167.876" y="76.2285" type="curve" smooth="yes"/>
      <point x="170.171" y="169.694"/>
      <point x="174.883" y="352.389"/>
      <point x="171.703" y="356.811" type="curve" smooth="yes"/>
      <point x="168.524" y="361.23"/>
      <point x="160.027" y="360.228"/>
    </contour>
  </outline>
</glyph>
<glyph name="h" format="1">
  <advance width="303"/>
  <unicode hex="0068"/>
  <outline>
    <contour>
      <point x="126.444" y="0.776367" type="curve"/>
      <point x="126.443" y="0.776367" type="line"/>
      <point x="122.177" y="-3.99121"/>
      <point x="114.365" y="-6.13574"/>
      <point x="101.26" y="-6.13574" type="curve" smooth="yes"/>
      <point x="86.4873" y="-6.13574"/>
      <point x="81.3477" y="-4.42773"/>
      <point x="78.1514" y="1.54102" type="curve" smooth="yes"/>
      <point x="72.5537" y="12.0039"/>
      <point x="72.6475" y="528.913"/>
      <point x="78.251" y="539.384" type="curve" smooth="yes"/>
      <point x="81.5479" y="545.545"/>
      <point x="86.7598" y="546.878"/>
      <point x="107.533" y="546.878" type="curve" smooth="yes"/>
      <point x="129.414" y="546.878"/>
      <point x="133.143" y="545.81"/>
      <point x="135.334" y="538.903" type="curve" smooth="yes"/>
      <point x="136.729" y="534.518"/>
      <point x="137.386" y="505.24"/>
      <point x="136.8" y="473.846" type="curve" smooth="yes"/>
      <point x="136.212" y="442.449"/>
      <point x="136.846" y="415.648"/>
      <point x="138.207" y="414.287" type="curve" smooth="yes"/>
      <point x="139.568" y="412.927"/>
      <point x="150.139" y="411.887"/>
      <point x="161.697" y="411.982" type="curve" smooth="yes"/>
      <point x="188.685" y="412.199"/>
      <point x="212.269" y="399.115"/>
      <point x="222.687" y="378.146" type="curve" smooth="yes"/>
      <point x="230.113" y="363.198" type="line"/>
      <point x="229.359" y="184.155" type="line" smooth="yes"/>
      <point x="228.808" y="53.2344"/>
      <point x="227.351" y="3.59961"/>
      <point x="223.938" y="-0.511719" type="curve" smooth="yes"/>
      <point x="220.735" y="-4.37109"/>
      <point x="210.817" y="-6.13574"/>
      <point x="192.337" y="-6.13574" type="curve" smooth="yes"/>
      <point x="176.712" y="-6.13574"/>
      <point x="164.254" y="-4.27734"/>
      <point x="162.668" y="-1.70996" type="curve" smooth="yes"/>
      <point x="160.064" y="2.50195"/>
      <point x="159.897" y="289.172"/>
      <point x="162.486" y="309.872" type="curve" smooth="yes"/>
      <point x="163.165" y="315.304"/>
      <point x="162.068" y="324.563"/>
      <point x="160.049" y="330.449" type="curve" smooth="yes"/>
      <point x="156.078" y="342.019"/>
      <point x="142.872" y="348.64"/>
      <point x="136.492" y="342.259" type="curve" smooth="yes"/>
      <point x="133.985" y="339.753"/>
      <point x="132.547" y="277.962"/>
      <point x="132.585" y="173.001" type="curve" smooth="yes"/>
      <point x="132.623" y="28.5254"/>
      <point x="131.849" y="6.81836"/>
    </contour>
  </outline>
</glyph>
<glyph name="i" format="1">
  <advance width="213"/>
  <unicode hex="0069"/>
  <outline>
    <contour>
      <point x="134.72" y="1.31934" type="curve" smooth="yes"/>
      <point x="129.509" y="-4.96191"/>
      <point x="77.8184" y="-5.69727"/>
      <point x="74.0146" y="0.456055" type="curve" smooth="yes"/>
      <point x="72.5752" y="2.7832"/>
      <point x="72.6807" y="82.3271"/>
      <point x="74.2441" y="177.224" type="curve" smooth="yes"/>
      <point x="77.9287" y="400.746"/>
      <point x="77.9961" y="402.555"/>
      <point x="82.7725" y="407.331" type="curve" smooth="yes"/>
      <point x="85.0088" y="409.566"/>
      <point x="98.2109" y="410.86"/>
      <point x="112.113" y="410.205" type="curve" smooth="yes"/>
      <point x="121.928" y="409.743"/>
      <point x="133.18" y="414.407"/>
      <point x="137.729" y="407.306" type="curve" smooth="yes"/>
      <point x="143.821" y="397.795"/>
      <point x="138.167" y="207.713"/>
      <point x="138.167" y="207.713" type="curve" smooth="yes"/>
      <point x="138.702" y="69.4688"/>
      <point x="137.622" y="4.81641"/>
    </contour>
    <contour>
      <point x="132.843" y="498.537" type="curve" smooth="yes"/>
      <point x="120.15" y="484.767"/>
      <point x="105.876" y="480.456"/>
      <point x="93.3984" y="486.626" type="curve" smooth="yes"/>
      <point x="83.6465" y="491.448"/>
      <point x="76.1602" y="505.855"/>
      <point x="76.1602" y="519.805" type="curve" smooth="yes"/>
      <point x="76.1602" y="538.021"/>
      <point x="103.366" y="556.172"/>
      <point x="120.762" y="549.558" type="curve" smooth="yes"/>
      <point x="132.745" y="545.002"/>
      <point x="138.801" y="537.24"/>
      <point x="141.706" y="522.707" type="curve" smooth="yes"/>
      <point x="143.626" y="513.113"/>
      <point x="141.873" y="508.334"/>
    </contour>
  </outline>
</glyph>
<glyph name="j" format="1">
  <advance width="246"/>
  <unicode hex="006A"/>
  <outline>
    <contour>
      <point x="113.35" y="-176.65" type="curve" smooth="yes"/>
      <point x="73.8203" y="-193.596"/>
      <point x="33.0889" y="-179.817"/>
      <point x="13.2422" y="-142.788" type="curve" smooth="yes"/>
      <point x="6.76367" y="-130.701"/>
      <point x="4.9541" y="-120.344"/>
      <point x="5.00098" y="-95.6387" type="curve" smooth="yes"/>
      <point x="5.03418" y="-78.2266"/>
      <point x="6.6543" y="-61.4629"/>
      <point x="8.60059" y="-58.3877" type="curve" smooth="yes"/>
      <point x="10.9619" y="-54.6582"/>
      <point x="18.3906" y="-53.0342"/>
      <point x="30.917" y="-53.5068" type="curve" smooth="yes"/>
      <point x="41.2441" y="-53.8975"/>
      <point x="52.0674" y="-56.1865"/>
      <point x="54.9678" y="-58.5947" type="curve" smooth="yes"/>
      <point x="58.1846" y="-61.2646"/>
      <point x="60.2422" y="-71.3594"/>
      <point x="60.2422" y="-84.4727" type="curve" smooth="yes"/>
      <point x="60.2422" y="-96.2988"/>
      <point x="62.082" y="-109.413"/>
      <point x="64.3311" y="-113.615" type="curve" smooth="yes"/>
      <point x="66.5928" y="-117.842"/>
      <point x="72.5674" y="-121.257"/>
      <point x="77.7021" y="-121.257" type="curve" smooth="yes"/>
      <point x="98.2051" y="-121.257"/>
      <point x="98.1016" y="-122.499"/>
      <point x="99.2061" y="139.179" type="curve" smooth="yes"/>
      <point x="99.8291" y="286.916"/>
      <point x="101.734" y="384.646"/>
      <point x="104.075" y="389.022" type="curve" smooth="yes"/>
      <point x="107.224" y="394.904"/>
      <point x="112.868" y="396.208"/>
      <point x="135.199" y="396.208" type="curve" smooth="yes"/>
      <point x="152.73" y="396.208"/>
      <point x="163.589" y="394.442"/>
      <point x="165.587" y="391.27" type="curve" smooth="yes"/>
      <point x="168.848" y="386.093"/>
      <point x="168.453" y="213.392"/>
      <point x="164.716" y="9.09766" type="curve" smooth="yes"/>
      <point x="162.353" y="-120.09"/>
      <point x="160.046" y="-136.469"/>
      <point x="141.201" y="-157.889" type="curve" smooth="yes"/>
      <point x="135.899" y="-163.915"/>
      <point x="123.366" y="-172.358"/>
    </contour>
    <contour>
      <point x="173.807" y="495.941" type="curve" smooth="yes"/>
      <point x="162.036" y="484.954"/>
      <point x="148.116" y="482.461"/>
      <point x="131.89" y="488.434" type="curve" smooth="yes"/>
      <point x="114.385" y="494.878"/>
      <point x="107.46" y="505.007"/>
      <point x="109.527" y="521.146" type="curve" smooth="yes"/>
      <point x="112.87" y="547.254"/>
      <point x="124.244" y="558.162"/>
      <point x="148.12" y="558.162" type="curve" smooth="yes"/>
      <point x="167.32" y="558.162"/>
      <point x="182.695" y="541.245"/>
      <point x="182.695" y="520.121" type="curve" smooth="yes"/>
      <point x="182.695" y="508.74"/>
      <point x="180.175" y="501.885"/>
    </contour>
  </outline>
</glyph>
<glyph name="k" format="1">
  <advance width="342"/>
  <unicode hex="006B"/>
  <outline>
    <contour>
      <point x="108.596" y="558.348" type="curve" smooth="yes"/>
      <point x="121.56" y="558.091"/>
      <point x="136.746" y="555.627"/>
      <point x="140.197" y="552.176" type="curve" smooth="yes"/>
      <point x="144.077" y="549.321"/>
      <point x="143.635" y="532.22"/>
      <point x="143.037" y="511.935" type="curve" smooth="yes"/>
      <point x="141.864" y="472.124"/>
      <point x="139.475" y="338.056"/>
      <point x="139.211" y="301.221" type="curve"/>
      <point x="145.481" y="311.503"/>
      <point x="150.106" y="318.991"/>
      <point x="156.121" y="328.871" type="curve" smooth="yes"/>
      <point x="195.014" y="392.745"/>
      <point x="213.409" y="418.38"/>
      <point x="219.816" y="417.255" type="curve" smooth="yes"/>
      <point x="222.962" y="416.704"/>
      <point x="235.92" y="411.625"/>
      <point x="248.579" y="405.898" type="curve" smooth="yes"/>
      <point x="248.579" y="405.898"/>
      <point x="269.378" y="401.044"/>
      <point x="271.662" y="395.406" type="curve" smooth="yes"/>
      <point x="274.275" y="387.085"/>
      <point x="243.816" y="346.66"/>
      <point x="236.852" y="334.797" type="curve" smooth="yes"/>
      <point x="222.237" y="312.913"/>
      <point x="207.406" y="289.446"/>
      <point x="203.77" y="282.704" type="curve"/>
      <point x="204.725" y="279.779"/>
      <point x="205.561" y="277.104"/>
      <point x="205.991" y="275.421" type="curve" smooth="yes"/>
      <point x="206.804" y="272.256"/>
      <point x="225.323" y="214.842"/>
      <point x="247.098" y="147.784" type="curve" smooth="yes"/>
      <point x="272.728" y="68.8516"/>
      <point x="285.91" y="23.6982"/>
      <point x="284.376" y="19.6523" type="curve" smooth="yes"/>
      <point x="282.935" y="15.8467"/>
      <point x="274.403" y="10.9189"/>
      <point x="262.651" y="7.18457" type="curve" smooth="yes"/>
      <point x="252.031" y="3.80859"/>
      <point x="240.317" y="0.907227"/>
      <point x="236.604" y="0.642578" type="curve" smooth="yes"/>
      <point x="227.757" y="0.0117188"/>
      <point x="221.414" y="10.3545"/>
      <point x="215.003" y="36.3164" type="curve" smooth="yes"/>
      <point x="209.391" y="59.0381"/>
      <point x="168.126" y="193.012"/>
      <point x="161.477" y="211.376" type="curve" smooth="yes"/>
      <point x="161.015" y="212.653"/>
      <point x="160.294" y="213.371"/>
      <point x="160.195" y="213.454" type="curve" smooth="yes"/>
      <point x="159.971" y="213.64"/>
      <point x="159.092" y="213.079"/>
      <point x="157.928" y="211.572" type="curve" smooth="yes"/>
      <point x="152.105" y="204.042"/>
      <point x="137.054" y="179.028"/>
      <point x="136.863" y="176.176" type="curve" smooth="yes"/>
      <point x="136.629" y="162.841"/>
      <point x="136.487" y="152.535"/>
      <point x="136.247" y="137.908" type="curve" smooth="yes"/>
      <point x="134.878" y="54.9307"/>
      <point x="132.715" y="7.92285"/>
      <point x="129.951" y="4.59277" type="curve" smooth="yes"/>
      <point x="127.353" y="1.46191"/>
      <point x="117.714" y="-0.378906"/>
      <point x="105.387" y="-0.0986328" type="curve" smooth="yes"/>
      <point x="94.2461" y="0.154297"/>
      <point x="82.1963" y="1.16895"/>
      <point x="78.5996" y="2.12305" type="curve" smooth="yes"/>
      <point x="70.0244" y="4.39844"/>
      <point x="67.4766" y="16.2207"/>
      <point x="69.835" y="42.8594" type="curve" smooth="yes"/>
      <point x="72.5625" y="73.667"/>
      <point x="73.9678" y="128.118"/>
      <point x="76.8711" y="319.366" type="curve" smooth="yes"/>
      <point x="80.0039" y="525.712"/>
      <point x="81.4023" y="551.274"/>
      <point x="90.6963" y="556.249" type="curve" smooth="yes"/>
      <point x="93.7861" y="557.902"/>
      <point x="100.818" y="558.502"/>
    </contour>
  </outline>
</glyph>
<glyph name="l" format="1">
  <advance width="213"/>
  <unicode hex="006C"/>
  <outline>
    <contour>
      <point x="129.923" y="-2.5957" type="curve" smooth="yes"/>
      <point x="127.324" y="-5.72754"/>
      <point x="117.728" y="-7.56152"/>
      <point x="105.399" y="-7.28125" type="curve" smooth="yes"/>
      <point x="94.2588" y="-7.0293"/>
      <point x="82.2031" y="-6.04297"/>
      <point x="78.6064" y="-5.08887" type="curve" smooth="yes"/>
      <point x="70.0322" y="-2.81348"/>
      <point x="67.4756" y="9.07324"/>
      <point x="69.834" y="35.7119" type="curve" smooth="yes"/>
      <point x="72.5625" y="66.5195"/>
      <point x="73.9434" y="120.971"/>
      <point x="76.8467" y="312.219" type="curve" smooth="yes"/>
      <point x="79.9805" y="518.565"/>
      <point x="81.4805" y="544.093"/>
      <point x="90.7754" y="549.067" type="curve" smooth="yes"/>
      <point x="99.0137" y="553.477"/>
      <point x="134.74" y="550.586"/>
      <point x="140.262" y="545.063" type="curve" smooth="yes"/>
      <point x="142.434" y="542.894"/>
      <point x="143.686" y="524.992"/>
      <point x="143.089" y="504.705" type="curve" smooth="yes"/>
      <point x="141.789" y="460.62"/>
      <point x="138.871" y="294.441"/>
      <point x="139.155" y="280.618" type="curve" smooth="yes"/>
      <point x="139.267" y="275.187"/>
      <point x="139.148" y="268.076"/>
      <point x="138.887" y="264.817" type="curve" smooth="yes"/>
      <point x="138.628" y="261.559"/>
      <point x="137.466" y="201.215"/>
      <point x="136.304" y="130.72" type="curve" smooth="yes"/>
      <point x="134.937" y="47.7432"/>
      <point x="132.686" y="0.734375"/>
    </contour>
  </outline>
</glyph>
<glyph name="m" format="1">
  <advance width="432"/>
  <unicode hex="006D"/>
  <outline>
    <contour>
      <point x="137.764" y="8.14746" type="curve" smooth="yes"/>
      <point x="137.763" y="8.14648" type="line" smooth="yes"/>
      <point x="135.062" y="4.45312"/>
      <point x="125.234" y="1.25684"/>
      <point x="113.476" y="0.249023" type="curve" smooth="yes"/>
      <point x="84.1328" y="-2.26562"/>
      <point x="76.0488" y="-0.0205078"/>
      <point x="71.4873" y="11.9141" type="curve" smooth="yes"/>
      <point x="69.0537" y="18.2803"/>
      <point x="68.3271" y="42.085"/>
      <point x="69.6592" y="71.8506" type="curve" smooth="yes"/>
      <point x="72.5518" y="136.486"/>
      <point x="77.0498" y="321.198"/>
      <point x="76.7969" y="364.833" type="curve" smooth="yes"/>
      <point x="76.6768" y="385.473"/>
      <point x="78.4736" y="401.65"/>
      <point x="81.3184" y="405.541" type="curve" smooth="yes"/>
      <point x="85.4482" y="411.189"/>
      <point x="100.94" y="412.244"/>
      <point x="205.148" y="413.97" type="curve"/>
      <point x="205.148" y="413.97"/>
      <point x="290.198" y="416.727"/>
      <point x="313.665" y="413.208" type="curve" smooth="yes"/>
      <point x="337.134" y="409.69"/>
      <point x="338.272" y="406.838"/>
      <point x="338.272" y="406.838" type="curve"/>
      <point x="345.979" y="401.831"/>
      <point x="354.163" y="392.407"/>
      <point x="356.457" y="385.896" type="curve" smooth="yes"/>
      <point x="359.264" y="377.927"/>
      <point x="359.864" y="325.009"/>
      <point x="358.296" y="223.941" type="curve" smooth="yes"/>
      <point x="355.637" y="52.6279"/>
      <point x="354.158" y="10.6465"/>
      <point x="350.575" y="4.85059" type="curve" smooth="yes"/>
      <point x="347.377" y="-0.322266"/>
      <point x="290.545" y="-0.583008"/>
      <point x="287.365" y="4.5625" type="curve" smooth="yes"/>
      <point x="284.062" y="9.90918"/>
      <point x="284.006" y="53.9531"/>
      <point x="287.108" y="205.255" type="curve" smooth="yes"/>
      <point x="287.108" y="205.255"/>
      <point x="290.136" y="330.703"/>
      <point x="289.804" y="336.683" type="curve" smooth="yes"/>
      <point x="289.322" y="345.38"/>
      <point x="277.314" y="349.807"/>
      <point x="277.314" y="349.807" type="curve"/>
      <point x="269.307" y="353.153"/>
      <point x="258.553" y="348.032"/>
      <point x="255.946" y="347.032" type="curve" smooth="yes"/>
      <point x="252.66" y="345.771"/>
      <point x="251.103" y="330.869"/>
      <point x="250.857" y="298.397" type="curve" smooth="yes"/>
      <point x="250.665" y="272.648"/>
      <point x="249.311" y="197.366"/>
      <point x="247.85" y="131.104" type="curve" smooth="yes"/>
      <point x="246.001" y="47.2705"/>
      <point x="243.784" y="9.27051"/>
      <point x="240.562" y="6.17285" type="curve" smooth="yes"/>
      <point x="238.015" y="3.72461"/>
      <point x="225.837" y="0.612305"/>
      <point x="213.5" y="-0.741211" type="curve" smooth="yes"/>
      <point x="179.949" y="-4.42383"/>
      <point x="179.481" y="-3.45117"/>
      <point x="181.011" y="66.6562" type="curve" smooth="yes"/>
      <point x="186.56" y="321.008"/>
      <point x="186.603" y="339.45"/>
      <point x="181.656" y="343.361" type="curve" smooth="yes"/>
      <point x="173.733" y="349.627"/>
      <point x="155.354" y="351.626"/>
      <point x="151.239" y="346.669" type="curve" smooth="yes"/>
      <point x="147.15" y="341.741"/>
      <point x="143.787" y="243.877"/>
      <point x="142.877" y="103.34" type="curve" smooth="yes"/>
      <point x="142.489" y="43.4248"/>
      <point x="140.819" y="12.3252"/>
    </contour>
  </outline>
</glyph>
<glyph name="n" format="1">
  <advance width="316"/>
  <unicode hex="006E"/>
  <outline>
    <contour>
      <point x="134.561" y="171.967" type="curve"/>
      <point x="134.561" y="171.967"/>
      <point x="138.962" y="19.1406"/>
      <point x="134.058" y="7.14355" type="curve" smooth="yes"/>
      <point x="130.051" y="-2.6582"/>
      <point x="119.344" y="-2.75195"/>
      <point x="107.015" y="-3.77246" type="curve" smooth="yes"/>
      <point x="94.1553" y="-4.83887"/>
      <point x="81.3848" y="-0.810547"/>
      <point x="76.1777" y="6.37402" type="curve" smooth="yes"/>
      <point x="70.9922" y="13.5303"/>
      <point x="73.6865" y="95.7559"/>
      <point x="73.7969" y="202.922" type="curve" smooth="yes"/>
      <point x="73.9346" y="339.693"/>
      <point x="75.3271" y="400.444"/>
      <point x="78.4658" y="406.741" type="curve"/>
      <point x="78.4658" y="406.741"/>
      <point x="78.2549" y="408.862"/>
      <point x="87.0381" y="414.347" type="curve" smooth="yes"/>
      <point x="95.8213" y="419.829"/>
      <point x="135.037" y="416.122"/>
      <point x="135.037" y="416.122" type="curve"/>
      <point x="176.642" y="416.45"/>
      <point x="190.226" y="415.15"/>
      <point x="202.465" y="409.67" type="curve" smooth="yes"/>
      <point x="219.404" y="402.085"/>
      <point x="231.283" y="387.583"/>
      <point x="238.309" y="365.91" type="curve" smooth="yes"/>
      <point x="241.296" y="356.692"/>
      <point x="242.922" y="319.014"/>
      <point x="242.935" y="259.257" type="curve" smooth="yes"/>
      <point x="242.948" y="9.56641"/>
      <point x="243" y="11.707"/>
      <point x="236.739" y="5.44434" type="curve" smooth="yes"/>
      <point x="232.38" y="1.08594"/>
      <point x="223.15" y="-0.308594"/>
      <point x="202.175" y="0.224609" type="curve"/>
      <point x="202.175" y="0.224609"/>
      <point x="175.111" y="-2.3125"/>
      <point x="173.559" y="7.10254" type="curve" smooth="yes"/>
      <point x="170.699" y="24.4473"/>
      <point x="172.774" y="168.486"/>
      <point x="172.774" y="168.486" type="curve" smooth="yes"/>
      <point x="171.922" y="350.506"/>
      <point x="172.295" y="347.574"/>
      <point x="150.047" y="347.574" type="curve" smooth="yes"/>
      <point x="144.33" y="347.574"/>
      <point x="138.621" y="346.541"/>
      <point x="137.358" y="345.278" type="curve" smooth="yes"/>
      <point x="136.096" y="344.016"/>
      <point x="134.837" y="266.025"/>
    </contour>
  </outline>
</glyph>
<glyph name="o" format="1">
  <advance width="316"/>
  <unicode hex="006F"/>
  <outline>
    <contour>
      <point x="158.331" y="421.918" type="curve" smooth="yes"/>
      <point x="158.334" y="421.918" type="line" smooth="yes"/>
      <point x="181.812" y="422.864"/>
      <point x="200.833" y="415.091"/>
      <point x="218.45" y="397.723" type="curve" smooth="yes"/>
      <point x="227.962" y="388.346"/>
      <point x="237.039" y="377.295"/>
      <point x="240.299" y="364.644" type="curve" smooth="yes"/>
      <point x="244.559" y="348.115"/>
      <point x="244.614" y="315.17"/>
      <point x="244.126" y="212.314" type="curve" smooth="yes"/>
      <point x="243.743" y="131.931"/>
      <point x="241.946" y="62.7139"/>
      <point x="241.286" y="58.2607" type="curve" smooth="yes"/>
      <point x="238.334" y="38.3115"/>
      <point x="225.433" y="19.9033"/>
      <point x="206.229" y="7.15625" type="curve" smooth="yes"/>
      <point x="173.694" y="-14.4395"/>
      <point x="136.047" y="-14.1641"/>
      <point x="105.131" y="7.89746" type="curve" smooth="yes"/>
      <point x="96.7725" y="13.8623"/>
      <point x="85.8242" y="25.8701"/>
      <point x="80.8135" y="34.5605" type="curve"/>
      <point x="80.8135" y="34.5605"/>
      <point x="72.0342" y="44.7334"/>
      <point x="71.6787" y="74.0615" type="curve" smooth="yes"/>
      <point x="71.3252" y="103.391"/>
      <point x="71.9238" y="202.439"/>
      <point x="71.9238" y="202.439" type="curve"/>
      <point x="71.9238" y="202.439"/>
      <point x="69.6914" y="301.696"/>
      <point x="72.1689" y="352.103" type="curve" smooth="yes"/>
      <point x="72.1162" y="371.717"/>
      <point x="91.4512" y="388.671"/>
      <point x="103.276" y="403.401" type="curve"/>
      <point x="111.036" y="410.215"/>
      <point x="114.105" y="411.148"/>
      <point x="120.155" y="413.812" type="curve" smooth="yes"/>
      <point x="126.86" y="416.765"/>
      <point x="129.594" y="417.58"/>
      <point x="141.296" y="419.818" type="curve" smooth="yes"/>
      <point x="147.229" y="420.954"/>
      <point x="152.912" y="421.7"/>
    </contour>
    <contour>
      <point x="158.331" y="355.753" type="curve" smooth="yes"/>
      <point x="151.815" y="355.607"/>
      <point x="145.832" y="352.155"/>
      <point x="142.653" y="345.754" type="curve" smooth="yes"/>
      <point x="139.686" y="339.776"/>
      <point x="138.359" y="292.906"/>
      <point x="138.58" y="200.342" type="curve" smooth="yes"/>
      <point x="138.84" y="92.1045"/>
      <point x="139.895" y="63.2764"/>
      <point x="144.012" y="60.7295" type="curve" smooth="yes"/>
      <point x="153.232" y="55.0273"/>
      <point x="167.649" y="60.541"/>
      <point x="171.909" y="71.4688" type="curve" smooth="yes"/>
      <point x="174.203" y="77.3574"/>
      <point x="177.226" y="138.949"/>
      <point x="178.698" y="212.314" type="curve" smooth="yes"/>
      <point x="178.698" y="212.314"/>
      <point x="182.392" y="334.585"/>
      <point x="181.29" y="342.668" type="curve" smooth="yes"/>
      <point x="180.189" y="350.753"/>
      <point x="175.503" y="351.527"/>
      <point x="173.267" y="353.541" type="curve" smooth="yes"/>
      <point x="171.03" y="355.556"/>
      <point x="163.398" y="355.868"/>
    </contour>
  </outline>
</glyph>
<glyph name="p" format="1">
  <advance width="315"/>
  <unicode hex="0070"/>
  <outline>
    <contour>
      <point x="111.758" y="426.558" type="curve" smooth="yes"/>
      <point x="146.793" y="427.164"/>
      <point x="200.311" y="423.748"/>
      <point x="211.003" y="418.534" type="curve" smooth="yes"/>
      <point x="226.487" y="410.518"/>
      <point x="242.439" y="391.934"/>
      <point x="242.729" y="373.602" type="curve" smooth="yes"/>
      <point x="243.213" y="342.632"/>
      <point x="241.494" y="215.597"/>
      <point x="241.494" y="215.597" type="curve" smooth="yes"/>
      <point x="240.52" y="95.29"/>
      <point x="238.962" y="54.6016"/>
      <point x="234.952" y="45.002" type="curve" smooth="yes"/>
      <point x="230.16" y="33.5352"/>
      <point x="216.362" y="22.2393"/>
      <point x="203.598" y="15.8711" type="curve" smooth="yes"/>
      <point x="191.255" y="9.71191"/>
      <point x="178.97" y="7.77148"/>
      <point x="162.862" y="8.58789" type="curve" smooth="yes"/>
      <point x="136.075" y="9.94531" type="line"/>
      <point x="134.1" y="-59.9219" type="line" smooth="yes"/>
      <point x="133.006" y="-98.6729"/>
      <point x="130.376" y="-131.669"/>
      <point x="128.175" y="-133.863" type="curve" smooth="yes"/>
      <point x="122.427" y="-139.596"/>
      <point x="86.9551" y="-138.692"/>
      <point x="77.3184" y="-137.443" type="curve" smooth="yes"/>
      <point x="72.1338" y="-136.771"/>
      <point x="70.2041" y="-136.818"/>
      <point x="70.0352" y="-132.023" type="curve" smooth="yes"/>
      <point x="69.6602" y="-121.373"/>
      <point x="72.3799" y="70.6787"/>
      <point x="72.3799" y="70.6787" type="curve" smooth="yes"/>
      <point x="73.6719" y="182.867"/>
      <point x="75.0098" y="306.913"/>
      <point x="75.2188" y="346.444" type="curve" smooth="yes"/>
      <point x="75.5195" y="403.417"/>
      <point x="76.6914" y="419.283"/>
      <point x="81.1445" y="422.979" type="curve" smooth="yes"/>
      <point x="83.6924" y="425.092"/>
      <point x="95.832" y="426.281"/>
    </contour>
    <contour>
      <point x="145.333" y="361.258" type="curve"/>
      <point x="144.806" y="361.234"/>
      <point x="144.379" y="361.041"/>
      <point x="143.976" y="360.887" type="curve" smooth="yes"/>
      <point x="139" y="358.978"/>
      <point x="138.053" y="343.567"/>
      <point x="137.927" y="259.419" type="curve" smooth="yes"/>
      <point x="137.846" y="204.795"/>
      <point x="136.892" y="141.808"/>
      <point x="135.705" y="119.438" type="curve" smooth="yes"/>
      <point x="134.18" y="90.6748"/>
      <point x="134.929" y="77.082"/>
      <point x="138.297" y="73.0234" type="curve" smooth="yes"/>
      <point x="144.852" y="65.126"/>
      <point x="155.317" y="65.7451"/>
      <point x="163.356" y="74.6279" type="curve" smooth="yes"/>
      <point x="169.372" y="81.2764"/>
      <point x="170.174" y="95.9619"/>
      <point x="170.886" y="213.252" type="curve" smooth="yes"/>
      <point x="171.133" y="256.95"/>
      <point x="176.072" y="309.011"/>
      <point x="171.626" y="348.832" type="curve"/>
      <point x="168.073" y="357.015"/>
      <point x="155.798" y="358.258"/>
    </contour>
  </outline>
</glyph>
<glyph name="q" format="1">
  <advance width="320"/>
  <unicode hex="0071"/>
  <outline>
    <contour>
      <point x="183.319" y="425.234" type="curve"/>
      <point x="214.285" y="425.35"/>
      <point x="237.455" y="423.809"/>
      <point x="239.854" y="421.408" type="curve" smooth="yes"/>
      <point x="247.589" y="413.041"/>
      <point x="244.537" y="404.298"/>
      <point x="241.213" y="86.3906" type="curve" smooth="yes"/>
      <point x="239.709" y="-57.3369"/>
      <point x="241.147" y="-123.623"/>
      <point x="234.794" y="-139.753" type="curve" smooth="yes"/>
      <point x="233.362" y="-143.387"/>
      <point x="220.898" y="-144.69"/>
      <point x="205.662" y="-144.69" type="curve" smooth="yes"/>
      <point x="185.753" y="-144.69"/>
      <point x="179.895" y="-143.271"/>
      <point x="177.146" y="-137.777" type="curve" smooth="yes"/>
      <point x="175.246" y="-133.976"/>
      <point x="174.272" y="-102.964"/>
      <point x="175.049" y="-68.8984" type="curve" smooth="yes"/>
      <point x="176.027" y="-25.9482"/>
      <point x="175.161" y="-6.11523"/>
      <point x="172.086" y="-4.21484" type="curve" smooth="yes"/>
      <point x="169.646" y="-2.70703"/>
      <point x="155.223" y="-1.80469"/>
      <point x="140.114" y="-2.11621" type="curve" smooth="yes"/>
      <point x="107.246" y="-2.79199"/>
      <point x="88.1396" y="4.89844"/>
      <point x="78.3936" y="22.6953" type="curve" smooth="yes"/>
      <point x="72.3906" y="33.6572"/>
      <point x="71.626" y="51.8594"/>
      <point x="71.2354" y="189.094" type="curve" smooth="yes"/>
      <point x="70.6865" y="381.479"/>
      <point x="68.0781" y="389.587"/>
      <point x="108.903" y="415.024" type="curve"/>
      <point x="108.903" y="415.024"/>
      <point x="124.001" y="423.135"/>
      <point x="130.856" y="425.112" type="curve" smooth="yes"/>
      <point x="147.659" y="429.958"/>
      <point x="183.319" y="425.234"/>
    </contour>
    <contour>
      <point x="167.395" y="355.119" type="curve" smooth="yes"/>
      <point x="159.498" y="355.752"/>
      <point x="148.227" y="355.381"/>
      <point x="142.954" y="345.369" type="curve" smooth="yes"/>
      <point x="135.876" y="331.928"/>
      <point x="136.64" y="89.9043"/>
      <point x="139.621" y="77.2559" type="curve" smooth="yes"/>
      <point x="141.492" y="69.3154"/>
      <point x="143.772" y="67.6797"/>
      <point x="158.014" y="68.7207" type="curve"/>
      <point x="158.014" y="68.7207"/>
      <point x="172.116" y="68.7744"/>
      <point x="174.308" y="73.7627" type="curve" smooth="yes"/>
      <point x="179.051" y="84.5586"/>
      <point x="175.419" y="211.312"/>
      <point x="175.419" y="211.312" type="curve" smooth="yes"/>
      <point x="176.325" y="334.31"/>
      <point x="175.73" y="352.487"/>
      <point x="170.481" y="354.503" type="curve" smooth="yes"/>
      <point x="169.616" y="354.836"/>
      <point x="168.522" y="355.029"/>
    </contour>
  </outline>
</glyph>
<glyph name="r" format="1">
  <advance width="311"/>
  <unicode hex="0072"/>
  <outline>
    <contour>
      <point x="134.014" y="7.33984" type="curve" smooth="yes"/>
      <point x="130.972" y="4.81738"/>
      <point x="119.256" y="1.98633"/>
      <point x="107.979" y="1.05078" type="curve" smooth="yes"/>
      <point x="91.2617" y="-0.334961"/>
      <point x="86.1807" y="0.193359"/>
      <point x="80.4746" y="6.49805" type="curve"/>
      <point x="80.4746" y="6.49805"/>
      <point x="74.165" y="10.7715"/>
      <point x="73.4766" y="22.7178" type="curve" smooth="yes"/>
      <point x="72.1504" y="45.7178"/>
      <point x="74.0146" y="205.985"/>
      <point x="74.0146" y="205.985" type="curve" smooth="yes"/>
      <point x="74.3096" y="311.126"/>
      <point x="76.0713" y="399.248"/>
      <point x="77.9287" y="404.136" type="curve"/>
      <point x="77.9287" y="404.136"/>
      <point x="77.2402" y="409.07"/>
      <point x="85.748" y="414.927" type="curve" smooth="yes"/>
      <point x="94.2568" y="420.784"/>
      <point x="133.773" y="414.833"/>
      <point x="133.773" y="414.833" type="curve" smooth="yes"/>
      <point x="162.629" y="414.781"/>
      <point x="193.104" y="413.146"/>
      <point x="201.493" y="411.198" type="curve" smooth="yes"/>
      <point x="223.932" y="405.993"/>
      <point x="238.517" y="390.077"/>
      <point x="242.961" y="365.95" type="curve" smooth="yes"/>
      <point x="248.21" y="337.458"/>
      <point x="248.505" y="293.896"/>
      <point x="243.512" y="284.567" type="curve" smooth="yes"/>
      <point x="240.11" y="278.209"/>
      <point x="235.239" y="276.673"/>
      <point x="218.49" y="276.673" type="curve" smooth="yes"/>
      <point x="207.053" y="276.673"/>
      <point x="195.562" y="278.807"/>
      <point x="192.954" y="281.413" type="curve" smooth="yes"/>
      <point x="190.347" y="284.021"/>
      <point x="188.215" y="294.422"/>
      <point x="188.215" y="304.529" type="curve" smooth="yes"/>
      <point x="188.215" y="327.516"/>
      <point x="174.947" y="349.235"/>
      <point x="160.215" y="350.367" type="curve" smooth="yes"/>
      <point x="154.709" y="350.791"/>
      <point x="148.082" y="349.826"/>
      <point x="145.488" y="348.224" type="curve" smooth="yes"/>
      <point x="141.972" y="346.049"/>
      <point x="140.617" y="302.946"/>
      <point x="140.158" y="178.619" type="curve" smooth="yes"/>
      <point x="139.65" y="41.124"/>
      <point x="138.574" y="11.125"/>
    </contour>
  </outline>
</glyph>
<glyph name="s" format="1">
  <advance width="307"/>
  <unicode hex="0073"/>
  <outline>
    <contour>
      <point x="190.588" y="2.55078" type="curve" smooth="yes"/>
      <point x="167.357" y="-9.30176"/>
      <point x="148.072" y="-10.5645"/>
      <point x="124.277" y="-1.7959" type="curve" smooth="yes"/>
      <point x="98.5635" y="7.68066"/>
      <point x="83.623" y="19.7705"/>
      <point x="74.7979" y="38.2422" type="curve" smooth="yes"/>
      <point x="69.5889" y="49.1455"/>
      <point x="68" y="63.0674"/>
      <point x="68" y="97.8232" type="curve" smooth="yes"/>
      <point x="68" y="128.092"/>
      <point x="69.6426" y="145.282"/>
      <point x="72.9385" y="149.511" type="curve" smooth="yes"/>
      <point x="79.3076" y="157.683"/>
      <point x="117.025" y="161.083"/>
      <point x="126.276" y="154.318" type="curve" smooth="yes"/>
      <point x="131.536" y="150.473"/>
      <point x="133.236" y="141.329"/>
      <point x="134.383" y="110.717" type="curve" smooth="yes"/>
      <point x="135.517" y="80.415"/>
      <point x="137.264" y="70.8936"/>
      <point x="142.404" y="66.9834" type="curve" smooth="yes"/>
      <point x="151.512" y="60.0566"/>
      <point x="160.844" y="60.5381"/>
      <point x="167.257" y="68.2656" type="curve" smooth="yes"/>
      <point x="171.105" y="72.9023"/>
      <point x="172.679" y="87.0312"/>
      <point x="172.679" y="116.962" type="curve" smooth="yes"/>
      <point x="172.679" y="116.962"/>
      <point x="175.849" y="149.744"/>
      <point x="172.679" y="159.125" type="curve" smooth="yes"/>
      <point x="169.509" y="168.507"/>
      <point x="162.218" y="172.841"/>
      <point x="162.218" y="172.841" type="curve" smooth="yes"/>
      <point x="156.464" y="180.384"/>
      <point x="141.354" y="194.423"/>
      <point x="128.641" y="204.037" type="curve" smooth="yes"/>
      <point x="115.929" y="213.652"/>
      <point x="100.6" y="226.815"/>
      <point x="94.5762" y="233.288" type="curve" smooth="yes"/>
      <point x="78.9326" y="250.102"/>
      <point x="71.9512" y="277.88"/>
      <point x="71.9512" y="323.314" type="curve" smooth="yes"/>
      <point x="71.9512" y="354.563"/>
      <point x="73.4971" y="365.15"/>
      <point x="79.7744" y="376.911" type="curve" smooth="yes"/>
      <point x="97.6357" y="410.368"/>
      <point x="123.012" y="428.452"/>
      <point x="155.27" y="430.713" type="curve" smooth="yes"/>
      <point x="166.771" y="431.519"/>
      <point x="180.726" y="430.211"/>
      <point x="186.28" y="427.806" type="curve" smooth="yes"/>
      <point x="203.419" y="420.389"/>
      <point x="222.233" y="404.655"/>
      <point x="228.533" y="392.473" type="curve" smooth="yes"/>
      <point x="234.688" y="380.568"/>
      <point x="240.043" y="311.856"/>
      <point x="235.846" y="298.632" type="curve" smooth="yes"/>
      <point x="234.077" y="293.062"/>
      <point x="228.889" y="291.62"/>
      <point x="209.654" y="291.348" type="curve" smooth="yes"/>
      <point x="196.461" y="291.162"/>
      <point x="182.299" y="292.812"/>
      <point x="178.185" y="295.014" type="curve" smooth="yes"/>
      <point x="172.065" y="298.289"/>
      <point x="170.703" y="303.521"/>
      <point x="170.703" y="323.765" type="curve" smooth="yes"/>
      <point x="170.703" y="337.744"/>
      <point x="168.641" y="350.572"/>
      <point x="165.964" y="353.251" type="curve" smooth="yes"/>
      <point x="158.957" y="360.257"/>
      <point x="143.854" y="359.004"/>
      <point x="139.761" y="351.078" type="curve" smooth="yes"/>
      <point x="132.851" y="337.693"/>
      <point x="130.914" y="314.476"/>
      <point x="135.318" y="297.811" type="curve" smooth="yes"/>
      <point x="139.477" y="282.077"/>
      <point x="154.896" y="267.556"/>
      <point x="167.861" y="255.288" type="curve" smooth="yes"/>
      <point x="175.582" y="247.983"/>
      <point x="181.65" y="247.212"/>
      <point x="194.216" y="237.34" type="curve" smooth="yes"/>
      <point x="217.113" y="219.352"/>
      <point x="225.549" y="205.9"/>
      <point x="233.644" y="174.481" type="curve" smooth="yes"/>
      <point x="238.691" y="154.887"/>
      <point x="236.061" y="63.7979"/>
      <point x="229.989" y="47.9258" type="curve" smooth="yes"/>
      <point x="222.777" y="29.0752"/>
      <point x="207.028" y="10.9375"/>
    </contour>
  </outline>
</glyph>
<glyph name="t" format="1">
  <advance width="226"/>
  <unicode hex="0074"/>
  <outline>
    <contour>
      <point x="154.942" y="-1.01367" type="curve"/>
      <point x="154.958" y="-1.01367" type="line"/>
      <point x="150.438" y="-4.04199"/>
      <point x="113.605" y="-4.20215"/>
      <point x="98.3701" y="-1.25879" type="curve" smooth="yes"/>
      <point x="93.5264" y="-0.324219"/>
      <point x="85.9648" y="5.49609"/>
      <point x="81.5654" y="11.6738" type="curve"/>
      <point x="81.5654" y="11.6738"/>
      <point x="73.749" y="22.9004"/>
      <point x="73.5674" y="30.8057" type="curve" smooth="yes"/>
      <point x="72.1328" y="92.5205"/>
      <point x="73.8711" y="235.389"/>
      <point x="73.8711" y="235.389" type="curve" smooth="yes"/>
      <point x="74.0479" y="357.51"/>
      <point x="75.7314" y="450.779"/>
      <point x="77.834" y="454.706" type="curve" smooth="yes"/>
      <point x="79.8457" y="458.465"/>
      <point x="85.4932" y="462.806"/>
      <point x="90.3838" y="464.352" type="curve" smooth="yes"/>
      <point x="95.2744" y="465.897"/>
      <point x="105.057" y="471.565"/>
      <point x="112.123" y="476.945" type="curve" smooth="yes"/>
      <point x="122.963" y="485.2"/>
      <point x="125.944" y="485.92"/>
      <point x="131.203" y="481.556" type="curve" smooth="yes"/>
      <point x="136.101" y="477.491"/>
      <point x="137.036" y="470.005"/>
      <point x="136.195" y="446.631" type="curve" smooth="yes"/>
      <point x="134.953" y="412.154" type="line"/>
      <point x="142.216" y="408.091"/>
      <point x="150.486" y="410.116"/>
      <point x="156.538" y="404.799" type="curve"/>
      <point x="159.584" y="399.604"/>
      <point x="158.881" y="388.988"/>
      <point x="158.881" y="381.025" type="curve" smooth="yes"/>
      <point x="158.881" y="373.062"/>
      <point x="159.52" y="362.551"/>
      <point x="156.538" y="357.252" type="curve" smooth="yes"/>
      <point x="153.127" y="351.684"/>
      <point x="137.298" y="355.417"/>
      <point x="134.812" y="347.243" type="curve" smooth="yes"/>
      <point x="132.186" y="338.6"/>
      <point x="134.31" y="249.138"/>
      <point x="134.057" y="201.671" type="curve" smooth="yes"/>
      <point x="133.805" y="154.204"/>
      <point x="130.705" y="64.9678"/>
      <point x="133.3" y="59.2715" type="curve" smooth="yes"/>
      <point x="135.098" y="55.3301"/>
      <point x="145.879" y="56.0107"/>
      <point x="145.879" y="56.0107" type="curve" smooth="yes"/>
      <point x="156.616" y="53.2295"/>
      <point x="158.85" y="50.4736"/>
      <point x="161.129" y="37.1953" type="curve" smooth="yes"/>
      <point x="164.121" y="19.7676"/>
      <point x="161.463" y="3.3584"/>
    </contour>
  </outline>
</glyph>
<glyph name="u" format="1">
  <advance width="314"/>
  <unicode hex="0075"/>
  <outline>
    <contour>
      <point x="238.091" y="404.448" type="curve" smooth="yes"/>
      <point x="242.41" y="394.161"/>
      <point x="241.159" y="19.8291"/>
      <point x="231.822" y="8.73926" type="curve" smooth="yes"/>
      <point x="225.052" y="0.696289"/>
      <point x="207.425" y="1.19531"/>
      <point x="166.259" y="3.69141" type="curve" smooth="yes"/>
      <point x="133.372" y="5.68555"/>
      <point x="121.686" y="8.02441"/>
      <point x="110.697" y="14.8164" type="curve" smooth="yes"/>
      <point x="90.7432" y="27.1484"/>
      <point x="85.04" y="34.7988"/>
      <point x="78.0332" y="58.626" type="curve" smooth="yes"/>
      <point x="72.8125" y="76.3799"/>
      <point x="71.8516" y="105.534"/>
      <point x="72.0166" y="241.078" type="curve" smooth="yes"/>
      <point x="72.1602" y="359.769"/>
      <point x="73.4395" y="403.382"/>
      <point x="76.8574" y="406.114" type="curve" smooth="yes"/>
      <point x="84.4111" y="412.156"/>
      <point x="129.777" y="414.432"/>
      <point x="137.025" y="409.133" type="curve"/>
      <point x="137.025" y="409.133"/>
      <point x="143.328" y="402.021"/>
      <point x="143.416" y="399.383" type="curve" smooth="yes"/>
      <point x="144.229" y="375.056"/>
      <point x="141.824" y="241.899"/>
      <point x="141.824" y="241.899" type="curve" smooth="yes"/>
      <point x="140.95" y="152.491"/>
      <point x="141.773" y="76.5898"/>
      <point x="143.653" y="73.2314" type="curve" smooth="yes"/>
      <point x="145.533" y="69.8711"/>
      <point x="151.427" y="67.1221"/>
      <point x="156.751" y="67.1221" type="curve"/>
      <point x="156.751" y="67.1221"/>
      <point x="166.007" y="68.3652"/>
      <point x="166.43" y="71.5635" type="curve" smooth="yes"/>
      <point x="168.363" y="86.1787"/>
      <point x="166.47" y="107.611"/>
      <point x="166.47" y="107.611" type="curve" smooth="yes"/>
      <point x="166.484" y="129.879"/>
      <point x="166.929" y="205.152"/>
      <point x="167.457" y="274.886" type="curve" smooth="yes"/>
      <point x="168.196" y="372.7"/>
      <point x="169.602" y="403.101"/>
      <point x="173.608" y="407.927" type="curve" smooth="yes"/>
      <point x="177.423" y="412.521"/>
      <point x="186.119" y="414.205"/>
      <point x="206.366" y="414.269" type="curve" smooth="yes"/>
      <point x="206.366" y="414.269"/>
      <point x="228.607" y="417.881"/>
      <point x="233.931" y="414.355" type="curve" smooth="yes"/>
      <point x="239.253" y="410.829"/>
      <point x="238.091" y="404.448"/>
    </contour>
  </outline>
</glyph>
<glyph name="v" format="1">
  <advance width="317"/>
  <unicode hex="0076"/>
  <outline>
    <contour>
      <point x="177.771" y="1.93164" type="curve"/>
      <point x="177.771" y="1.92871" type="line"/>
      <point x="172.267" y="-3.57715"/>
      <point x="127.392" y="-5.4502"/>
      <point x="115.036" y="-0.69043" type="curve" smooth="yes"/>
      <point x="108.899" y="1.6748"/>
      <point x="106.057" y="6.13379"/>
      <point x="105.855" y="13.7236" type="curve" smooth="yes"/>
      <point x="105.694" y="19.7676"/>
      <point x="104.989" y="28.2695"/>
      <point x="104.289" y="32.6143" type="curve" smooth="yes"/>
      <point x="101.969" y="47.0059"/>
      <point x="94.4209" y="114.515"/>
      <point x="86.4033" y="192.594" type="curve" smooth="yes"/>
      <point x="82.0527" y="234.958"/>
      <point x="77.5332" y="276.73"/>
      <point x="76.3613" y="285.42" type="curve" smooth="yes"/>
      <point x="75.1885" y="294.11"/>
      <point x="73.3193" y="311.887"/>
      <point x="72.2061" y="324.921" type="curve" smooth="yes"/>
      <point x="71.0947" y="337.957"/>
      <point x="68.5938" y="360.996"/>
      <point x="66.6494" y="376.119" type="curve" smooth="yes"/>
      <point x="64.2441" y="394.824"/>
      <point x="64.4658" y="405.244"/>
      <point x="67.3389" y="408.707" type="curve" smooth="yes"/>
      <point x="72.9629" y="415.483"/>
      <point x="120.351" y="415.633"/>
      <point x="124.518" y="408.89" type="curve" smooth="yes"/>
      <point x="126.187" y="406.188"/>
      <point x="129.87" y="387.08"/>
      <point x="132.704" y="366.426" type="curve" smooth="yes"/>
      <point x="139.458" y="317.185"/>
      <point x="140.302" y="310.223"/>
      <point x="143.49" y="277.521" type="curve" smooth="yes"/>
      <point x="144.974" y="262.313"/>
      <point x="146.856" y="243.192"/>
      <point x="147.677" y="235.03" type="curve" smooth="yes"/>
      <point x="150.314" y="208.76"/>
      <point x="155.082" y="209.156"/>
      <point x="159.891" y="236.046" type="curve" smooth="yes"/>
      <point x="162.416" y="250.167"/>
      <point x="168.243" y="283.052"/>
      <point x="172.841" y="309.123" type="curve" smooth="yes"/>
      <point x="185.829" y="382.768"/>
      <point x="193.732" y="413.347"/>
      <point x="200.111" y="414.63" type="curve" smooth="yes"/>
      <point x="203.24" y="415.261"/>
      <point x="217.152" y="415.181"/>
      <point x="231.027" y="414.452" type="curve" smooth="yes"/>
      <point x="231.027" y="414.452"/>
      <point x="252.07" y="417.536"/>
      <point x="256.253" y="413.128" type="curve" smooth="yes"/>
      <point x="260.436" y="408.72"/>
      <point x="257.205" y="402.289"/>
      <point x="257.205" y="396.854" type="curve" smooth="yes"/>
      <point x="257.205" y="390.695"/>
      <point x="251.629" y="369.704"/>
      <point x="245.978" y="344.004" type="curve" smooth="yes"/>
      <point x="240.326" y="318.302"/>
      <point x="234.938" y="291.052"/>
      <point x="234.002" y="283.448" type="curve" smooth="yes"/>
      <point x="233.067" y="275.845"/>
      <point x="230.434" y="261.624"/>
      <point x="228.148" y="251.848" type="curve" smooth="yes"/>
      <point x="225.864" y="242.071"/>
      <point x="221.539" y="219.852"/>
      <point x="218.536" y="202.471" type="curve" smooth="yes"/>
      <point x="215.534" y="185.09"/>
      <point x="208.484" y="148.65"/>
      <point x="202.873" y="121.494" type="curve" smooth="yes"/>
      <point x="197.261" y="94.3369"/>
      <point x="191.99" y="66.7852"/>
      <point x="191.161" y="60.2666" type="curve" smooth="yes"/>
      <point x="187.217" y="29.2568"/>
      <point x="181.891" y="6.05078"/>
    </contour>
  </outline>
</glyph>
<glyph name="w" format="1">
  <advance width="466"/>
  <unicode hex="0077"/>
  <outline>
    <contour>
      <point x="212.219" y="416.271" type="curve" smooth="yes"/>
      <point x="218.103" y="416.48"/>
      <point x="220.698" y="416.324"/>
      <point x="231.104" y="415.778" type="curve" smooth="yes"/>
      <point x="233.574" y="415.656" type="line"/>
      <point x="236.043" y="415.778" type="line" smooth="yes"/>
      <point x="249.917" y="416.506"/>
      <point x="249.783" y="418.374"/>
      <point x="259.002" y="415.899" type="curve" smooth="yes"/>
      <point x="264.708" y="414.369"/>
      <point x="277.815" y="384.004"/>
      <point x="290.804" y="310.357" type="curve" smooth="yes"/>
      <point x="295.401" y="284.287"/>
      <point x="304.618" y="251.402"/>
      <point x="307.144" y="237.282" type="curve" smooth="yes"/>
      <point x="311.952" y="210.392"/>
      <point x="316.726" y="210.022"/>
      <point x="319.364" y="236.294" type="curve" smooth="yes"/>
      <point x="320.184" y="244.455"/>
      <point x="322.079" y="263.55"/>
      <point x="323.562" y="278.758" type="curve" smooth="yes"/>
      <point x="326.751" y="311.459"/>
      <point x="327.548" y="318.394"/>
      <point x="334.302" y="367.635" type="curve" smooth="yes"/>
      <point x="337.134" y="388.289"/>
      <point x="340.902" y="407.397"/>
      <point x="342.571" y="410.098" type="curve" smooth="yes"/>
      <point x="346.739" y="416.843"/>
      <point x="394.103" y="416.752"/>
      <point x="399.725" y="409.976" type="curve" smooth="yes"/>
      <point x="402.599" y="406.512"/>
      <point x="402.746" y="396.092"/>
      <point x="400.342" y="377.388" type="curve" smooth="yes"/>
      <point x="398.397" y="362.264"/>
      <point x="395.899" y="339.195"/>
      <point x="394.786" y="326.159" type="curve" smooth="yes"/>
      <point x="393.675" y="313.125"/>
      <point x="391.887" y="295.349"/>
      <point x="390.714" y="286.658" type="curve" smooth="yes"/>
      <point x="389.541" y="277.968"/>
      <point x="384.941" y="236.195"/>
      <point x="380.592" y="193.831" type="curve" smooth="yes"/>
      <point x="372.573" y="115.753"/>
      <point x="365.136" y="48.2432"/>
      <point x="362.815" y="33.8516" type="curve" smooth="yes"/>
      <point x="362.115" y="29.5078"/>
      <point x="361.373" y="21.0107"/>
      <point x="361.211" y="14.9658" type="curve" smooth="yes"/>
      <point x="361.01" y="7.375"/>
      <point x="358.091" y="2.88867"/>
      <point x="351.953" y="0.522461" type="curve" smooth="yes"/>
      <point x="339.599" y="-4.23633"/>
      <point x="294.751" y="-2.2666"/>
      <point x="289.245" y="3.23828" type="curve" smooth="yes"/>
      <point x="285.126" y="7.3584"/>
      <point x="279.857" y="30.4912"/>
      <point x="275.913" y="61.502" type="curve" smooth="yes"/>
      <point x="275.084" y="68.0205"/>
      <point x="269.799" y="95.5723"/>
      <point x="264.188" y="122.729" type="curve" smooth="yes"/>
      <point x="258.574" y="149.887"/>
      <point x="251.513" y="186.326"/>
      <point x="248.51" y="203.706" type="curve" smooth="yes"/>
      <point x="245.507" y="221.087"/>
      <point x="241.165" y="243.306"/>
      <point x="238.882" y="253.082" type="curve" smooth="yes"/>
      <point x="236.877" y="261.659"/>
      <point x="234.733" y="273.401"/>
      <point x="233.574" y="281.351" type="curve"/>
      <point x="232.414" y="273.401"/>
      <point x="230.146" y="261.659"/>
      <point x="228.143" y="253.082" type="curve" smooth="yes"/>
      <point x="225.858" y="243.306"/>
      <point x="221.517" y="221.087"/>
      <point x="218.514" y="203.706" type="curve" smooth="yes"/>
      <point x="215.511" y="186.326"/>
      <point x="208.449" y="149.887"/>
      <point x="202.836" y="122.729" type="curve" smooth="yes"/>
      <point x="197.225" y="95.5723"/>
      <point x="192.062" y="68.0205"/>
      <point x="191.233" y="61.502" type="curve" smooth="yes"/>
      <point x="187.289" y="30.4912"/>
      <point x="181.897" y="7.3584"/>
      <point x="177.778" y="3.23828" type="curve" smooth="yes"/>
      <point x="172.273" y="-2.2666"/>
      <point x="127.426" y="-4.23633"/>
      <point x="115.07" y="0.522461" type="curve" smooth="yes"/>
      <point x="108.933" y="2.88867"/>
      <point x="106.014" y="7.375"/>
      <point x="105.812" y="14.9658" type="curve" smooth="yes"/>
      <point x="105.65" y="21.0107"/>
      <point x="105.031" y="29.5078"/>
      <point x="104.331" y="33.8516" type="curve" smooth="yes"/>
      <point x="102.011" y="48.2432"/>
      <point x="94.4502" y="115.753"/>
      <point x="86.4326" y="193.831" type="curve" smooth="yes"/>
      <point x="82.082" y="236.195"/>
      <point x="77.6064" y="277.968"/>
      <point x="76.4326" y="286.658" type="curve" smooth="yes"/>
      <point x="75.2598" y="295.349"/>
      <point x="73.3486" y="313.125"/>
      <point x="72.2363" y="326.159" type="curve" smooth="yes"/>
      <point x="71.124" y="339.195"/>
      <point x="68.626" y="362.264"/>
      <point x="66.6816" y="377.388" type="curve" smooth="yes"/>
      <point x="64.2773" y="396.092"/>
      <point x="64.4238" y="406.512"/>
      <point x="67.2988" y="409.976" type="curve" smooth="yes"/>
      <point x="72.9209" y="416.75"/>
      <point x="120.407" y="416.842"/>
      <point x="124.575" y="410.098" type="curve" smooth="yes"/>
      <point x="126.244" y="407.397"/>
      <point x="129.89" y="388.289"/>
      <point x="132.722" y="367.635" type="curve" smooth="yes"/>
      <point x="139.476" y="318.394"/>
      <point x="140.272" y="311.459"/>
      <point x="143.461" y="278.758" type="curve" smooth="yes"/>
      <point x="144.944" y="263.55"/>
      <point x="146.84" y="244.455"/>
      <point x="147.659" y="236.294" type="curve" smooth="yes"/>
      <point x="150.296" y="210.022"/>
      <point x="155.071" y="210.392"/>
      <point x="159.88" y="237.282" type="curve" smooth="yes"/>
      <point x="162.405" y="251.402"/>
      <point x="172.626" y="284.287"/>
      <point x="177.224" y="310.357" type="curve" smooth="yes"/>
      <point x="190.212" y="384.004"/>
      <point x="201.643" y="414.616"/>
      <point x="208.021" y="415.899" type="curve" smooth="yes"/>
      <point x="208.804" y="416.059"/>
      <point x="210.257" y="416.2"/>
    </contour>
  </outline>
</glyph>
<glyph name="x" format="1">
  <advance width="312"/>
  <unicode hex="0078"/>
  <outline>
    <contour>
      <point x="117.784" y="4.36621" type="curve" smooth="yes"/>
      <point x="115.423" y="1.25293"/>
      <point x="103.95" y="-0.572266"/>
      <point x="86.7471" y="-0.572266" type="curve" smooth="yes"/>
      <point x="67.1641" y="-0.572266"/>
      <point x="58.8652" y="0.970703"/>
      <point x="57.3613" y="4.88965" type="curve" smooth="yes"/>
      <point x="56.209" y="7.89258"/>
      <point x="57.9033" y="19.8906"/>
      <point x="61.1289" y="31.5527" type="curve" smooth="yes"/>
      <point x="64.3535" y="43.2129"/>
      <point x="71.4932" y="69.0293"/>
      <point x="76.998" y="88.9189" type="curve" smooth="yes"/>
      <point x="82.5" y="108.811"/>
      <point x="94.3613" y="147.705"/>
      <point x="103.357" y="175.353" type="curve" smooth="yes"/>
      <point x="119.711" y="225.622" type="line"/>
      <point x="113.752" y="245.841" type="line" smooth="yes"/>
      <point x="94.4551" y="311.312"/>
      <point x="75.5049" y="383.471"/>
      <point x="75.5049" y="391.479" type="curve" smooth="yes"/>
      <point x="75.5049" y="396.583"/>
      <point x="77.6377" y="402.892"/>
      <point x="80.2451" y="405.499" type="curve" smooth="yes"/>
      <point x="87.6133" y="412.866"/>
      <point x="120.725" y="411.412"/>
      <point x="129.725" y="403.326" type="curve" smooth="yes"/>
      <point x="133.956" y="399.524"/>
      <point x="139.638" y="386.637"/>
      <point x="142.351" y="374.688" type="curve" smooth="yes"/>
      <point x="149.739" y="342.132"/>
      <point x="150.777" y="339.137"/>
      <point x="154.663" y="339.137" type="curve" smooth="yes"/>
      <point x="156.629" y="339.137"/>
      <point x="161.074" y="349.358"/>
      <point x="164.542" y="361.851" type="curve" smooth="yes"/>
      <point x="168.01" y="374.342"/>
      <point x="171.906" y="387.229"/>
      <point x="173.199" y="390.489" type="curve" smooth="yes"/>
      <point x="174.492" y="393.747"/>
      <point x="175.701" y="397.812"/>
      <point x="175.892" y="399.52" type="curve" smooth="yes"/>
      <point x="176.653" y="406.453"/>
      <point x="189.389" y="410.123"/>
      <point x="212.896" y="410.178" type="curve" smooth="yes"/>
      <point x="231.69" y="410.225"/>
      <point x="238.276" y="408.756"/>
      <point x="240.055" y="404.123" type="curve" smooth="yes"/>
      <point x="242.604" y="397.479"/>
      <point x="240.182" y="388.532"/>
      <point x="210.158" y="293.71" type="curve" smooth="yes"/>
      <point x="199.151" y="258.949"/>
      <point x="190.143" y="226.789"/>
      <point x="190.103" y="222.24" type="curve" smooth="yes"/>
      <point x="190.078" y="217.692"/>
      <point x="193.718" y="203.472"/>
      <point x="198.191" y="190.639" type="curve" smooth="yes"/>
      <point x="209.766" y="157.433"/>
      <point x="241.197" y="56.666"/>
      <point x="247.821" y="31.5264" type="curve" smooth="yes"/>
      <point x="255.536" y="2.24707"/>
      <point x="252.062" y="-1.22266"/>
      <point x="216.519" y="0.254883" type="curve" smooth="yes"/>
      <point x="186.22" y="1.51562"/>
      <point x="186.106" y="1.60645"/>
      <point x="178.062" y="31.0293" type="curve" smooth="yes"/>
      <point x="175.389" y="40.8057"/>
      <point x="170.257" y="57.6924"/>
      <point x="166.658" y="68.5547" type="curve" smooth="yes"/>
      <point x="163.062" y="79.418"/>
      <point x="160.011" y="90.5273"/>
      <point x="159.879" y="93.2432" type="curve" smooth="yes"/>
      <point x="159.364" y="103.959"/>
      <point x="158.256" y="106.081"/>
      <point x="153.172" y="106.081" type="curve" smooth="yes"/>
      <point x="149.763" y="106.081"/>
      <point x="143.207" y="88.9033"/>
      <point x="134.708" y="57.6924" type="curve" smooth="yes"/>
      <point x="127.46" y="31.0781"/>
      <point x="119.844" y="7.08203"/>
    </contour>
  </outline>
</glyph>
<glyph name="y" format="1">
  <advance width="322"/>
  <unicode hex="0079"/>
  <outline>
    <contour>
      <point x="138.819" y="-142.053" type="curve" smooth="yes"/>
      <point x="128.589" y="-152.284"/>
      <point x="121.178" y="-155.815"/>
      <point x="106.232" y="-157.579" type="curve" smooth="yes"/>
      <point x="95.083" y="-158.894"/>
      <point x="83.1201" y="-157.992"/>
      <point x="77.998" y="-155.451" type="curve" smooth="yes"/>
      <point x="70.3389" y="-151.649"/>
      <point x="69.1104" y="-147.933"/>
      <point x="69.1104" y="-128.555" type="curve" smooth="yes"/>
      <point x="69.1104" y="-111.789"/>
      <point x="70.9482" y="-104.407"/>
      <point x="76.334" y="-99.5322" type="curve" smooth="yes"/>
      <point x="80.3076" y="-95.9375"/>
      <point x="87.1377" y="-92.9961"/>
      <point x="91.5127" y="-92.9961" type="curve" smooth="yes"/>
      <point x="96.5635" y="-92.9961"/>
      <point x="101.767" y="-88.3066"/>
      <point x="105.763" y="-80.1582" type="curve" smooth="yes"/>
      <point x="113.539" y="-64.3018"/>
      <point x="117.93" y="-52.3525"/>
      <point x="117.251" y="-48.8945" type="curve" smooth="yes"/>
      <point x="116.969" y="-47.4512"/>
      <point x="119.455" y="-37.1182"/>
      <point x="122.777" y="-25.9316" type="curve" smooth="yes"/>
      <point x="127.568" y="-9.79883"/>
      <point x="127.958" y="-1.35645"/>
      <point x="124.662" y="14.8945" type="curve" smooth="yes"/>
      <point x="118.524" y="45.1641"/>
      <point x="102.1" y="143.135"/>
      <point x="84.8057" y="252.639" type="curve" smooth="yes"/>
      <point x="82.7461" y="265.674"/>
      <point x="77.6855" y="295.003"/>
      <point x="73.5596" y="317.815" type="curve" smooth="yes"/>
      <point x="69.4326" y="340.626"/>
      <point x="65.9199" y="361.957"/>
      <point x="65.7549" y="365.217" type="curve" smooth="yes"/>
      <point x="65.5879" y="368.476"/>
      <point x="64.292" y="379.354"/>
      <point x="62.876" y="389.39" type="curve" smooth="yes"/>
      <point x="61.2891" y="400.623"/>
      <point x="61.8887" y="408.62"/>
      <point x="64.4346" y="410.194" type="curve" smooth="yes"/>
      <point x="66.708" y="411.599"/>
      <point x="78.0703" y="413.65"/>
      <point x="89.6826" y="414.752" type="curve" smooth="yes"/>
      <point x="103.493" y="416.062"/>
      <point x="113.126" y="415.015"/>
      <point x="117.535" y="411.724" type="curve" smooth="yes"/>
      <point x="122.382" y="408.105"/>
      <point x="125.967" y="394.486"/>
      <point x="130.295" y="363.241" type="curve" smooth="yes"/>
      <point x="133.606" y="339.343"/>
      <point x="137.059" y="315.951"/>
      <point x="137.969" y="311.26" type="curve" smooth="yes"/>
      <point x="139.899" y="301.296"/>
      <point x="143.124" y="276.588"/>
      <point x="146.134" y="248.688" type="curve" smooth="yes"/>
      <point x="149.275" y="219.589"/>
      <point x="152.263" y="207.212"/>
      <point x="156.147" y="207.212" type="curve" smooth="yes"/>
      <point x="158.049" y="207.212"/>
      <point x="160.702" y="213.878"/>
      <point x="162.045" y="222.025" type="curve" smooth="yes"/>
      <point x="163.387" y="230.172"/>
      <point x="168.971" y="259.058"/>
      <point x="174.455" y="286.214" type="curve" smooth="yes"/>
      <point x="179.938" y="313.371"/>
      <point x="186.856" y="350.699"/>
      <point x="189.829" y="369.166" type="curve" smooth="yes"/>
      <point x="192.803" y="387.633"/>
      <point x="195.298" y="403.062"/>
      <point x="195.374" y="403.448" type="curve" smooth="yes"/>
      <point x="195.45" y="403.836"/>
      <point x="198.307" y="406.946"/>
      <point x="201.722" y="410.36" type="curve" smooth="yes"/>
      <point x="206.066" y="414.706"/>
      <point x="215.486" y="416.567"/>
      <point x="233.125" y="416.567" type="curve" smooth="yes"/>
      <point x="252.203" y="416.567"/>
      <point x="259.189" y="415.021"/>
      <point x="261.89" y="410.195" type="curve" smooth="yes"/>
      <point x="265.134" y="404.397"/>
      <point x="261.354" y="382.828"/>
      <point x="238.785" y="278.314" type="curve" smooth="yes"/>
      <point x="236.674" y="268.538"/>
      <point x="233.941" y="255.206"/>
      <point x="232.714" y="248.688" type="curve" smooth="yes"/>
      <point x="231.486" y="242.171"/>
      <point x="226.258" y="217.284"/>
      <point x="221.095" y="193.387" type="curve" smooth="yes"/>
      <point x="215.933" y="169.488"/>
      <point x="208.053" y="132.16"/>
      <point x="203.585" y="110.435" type="curve" smooth="yes"/>
      <point x="199.117" y="88.709"/>
      <point x="192.884" y="59.3799"/>
      <point x="189.733" y="45.2578" type="curve" smooth="yes"/>
      <point x="184.077" y="19.9111"/>
      <point x="169.2" y="-51.9805"/>
      <point x="166.437" y="-67.3203" type="curve" smooth="yes"/>
      <point x="165.654" y="-71.665"/>
      <point x="163.644" y="-82.8145"/>
      <point x="161.97" y="-92.0957" type="curve" smooth="yes"/>
      <point x="160.295" y="-101.377"/>
      <point x="157.381" y="-109.926"/>
      <point x="155.493" y="-111.092" type="curve" smooth="yes"/>
      <point x="153.607" y="-112.258"/>
      <point x="152.062" y="-116.723"/>
      <point x="152.062" y="-121.011" type="curve" smooth="yes"/>
      <point x="152.062" y="-125.3"/>
      <point x="146.103" y="-134.77"/>
    </contour>
  </outline>
</glyph>
<glyph name="z" format="1">
  <advance width="336"/>
  <unicode hex="007A"/>
  <outline>
    <contour>
      <point x="235.198" y="415.208" type="curve"/>
      <point x="235.198" y="415.211" type="line"/>
      <point x="247.209" y="415.527"/>
      <point x="259.607" y="417.979"/>
      <point x="267.078" y="408.49" type="curve"/>
      <point x="276.901" y="391.22"/>
      <point x="273.765" y="363.677"/>
      <point x="268.494" y="349.079" type="curve" smooth="yes"/>
      <point x="249.562" y="305.697"/>
      <point x="231.73" y="268.909"/>
      <point x="229.271" y="262.637" type="curve" smooth="yes"/>
      <point x="227.288" y="257.58"/>
      <point x="224.469" y="251.103"/>
      <point x="222.977" y="248.194" type="curve" smooth="yes"/>
      <point x="221.485" y="245.285"/>
      <point x="197.296" y="190.017"/>
      <point x="169.156" y="125.371" type="curve" smooth="yes"/>
      <point x="156.89" y="97.1885"/>
      <point x="134.162" y="56.3125"/>
      <point x="136.461" y="52.375" type="curve" smooth="yes"/>
      <point x="139.13" y="47.8027"/>
      <point x="162.652" y="51.2471"/>
      <point x="175.751" y="50.7334" type="curve" smooth="yes"/>
      <point x="194.042" y="50.0146"/>
      <point x="202.569" y="49.0381"/>
      <point x="230.63" y="48.7139" type="curve" smooth="yes"/>
      <point x="241.172" y="48.5928"/>
      <point x="249.656" y="50.7627"/>
      <point x="255.643" y="44.8154" type="curve" smooth="yes"/>
      <point x="261.253" y="39.2402"/>
      <point x="259.449" y="29.3027"/>
      <point x="259.449" y="21.3916" type="curve" smooth="yes"/>
      <point x="259.469" y="11.418"/>
      <point x="261.595" y="-0.893555"/>
      <point x="254.764" y="-8.16309" type="curve" smooth="yes"/>
      <point x="248.779" y="-14.5322"/>
      <point x="233.061" y="-11.1338"/>
      <point x="219.396" y="-11.6475" type="curve" smooth="yes"/>
      <point x="206.209" y="-12.1416"/>
      <point x="175.363" y="-12.4414"/>
      <point x="153.355" y="-11.8896" type="curve" smooth="yes"/>
      <point x="137.331" y="-11.4873"/>
      <point x="108.593" y="-9.52441"/>
      <point x="105.338" y="-9.30273" type="curve" smooth="yes"/>
      <point x="102.082" y="-9.09277"/>
      <point x="91.1523" y="-9.08887"/>
      <point x="81.0195" y="-9.30273" type="curve" smooth="yes"/>
      <point x="69.6777" y="-9.54297"/>
      <point x="65.8428" y="-10.0654"/>
      <point x="61.4062" y="-5.05957" type="curve" smooth="yes"/>
      <point x="55.7705" y="1.2998"/>
      <point x="58.7627" y="8.66211"/>
      <point x="59.0469" y="20.3232" type="curve" smooth="yes"/>
      <point x="59.1377" y="23.9912"/>
      <point x="59.3203" y="27.292"/>
      <point x="59.6641" y="30.3223" type="curve" smooth="yes"/>
      <point x="59.3408" y="37.2246"/>
      <point x="63.1758" y="47.7061"/>
      <point x="71.2676" y="63.1562" type="curve" smooth="yes"/>
      <point x="85.6152" y="90.5566"/>
      <point x="107.734" y="140.366"/>
      <point x="183.846" y="315.841" type="curve" smooth="yes"/>
      <point x="189.339" y="328.505"/>
      <point x="199.602" y="346.713"/>
      <point x="198.658" y="349.787" type="curve" smooth="yes"/>
      <point x="198.272" y="351.043"/>
      <point x="193.906" y="350.063"/>
      <point x="192.4" y="350.012" type="curve" smooth="yes"/>
      <point x="169.254" y="349.235"/>
      <point x="146.729" y="347.851"/>
      <point x="132.741" y="346.943" type="curve" smooth="yes"/>
      <point x="117.104" y="345.95"/>
      <point x="95.2373" y="339.87"/>
      <point x="79.96" y="349.413" type="curve" smooth="yes"/>
      <point x="74.7578" y="352.684"/>
      <point x="77.9033" y="361.347"/>
      <point x="73.9805" y="378.545" type="curve" smooth="yes"/>
      <point x="69.7373" y="397.145"/>
      <point x="72.5957" y="404.34"/>
      <point x="76.7002" y="408.048" type="curve" smooth="yes"/>
      <point x="81.6299" y="412.499"/>
      <point x="103.47" y="413.596"/>
      <point x="210.387" y="414.837" type="curve" smooth="yes"/>
      <point x="215.978" y="414.904"/>
      <point x="223.188" y="414.893"/>
    </contour>
  </outline>
</glyph>
